<?xml version="1.0" encoding="UTF-8" standalone="no"?>
<!DOCTYPE svg PUBLIC "-//W3C//DTD SVG 1.1//EN"
 "http://www.w3.org/Graphics/SVG/1.1/DTD/svg11.dtd">
<!-- Generated by graphviz version 2.38.0 (20140413.2041)
 -->
<!-- Title: Architecture Pages: 1 -->
<svg width="1104pt" height="970pt"
 viewBox="0.00 0.00 1104.00 970.03" xmlns="http://www.w3.org/2000/svg" xmlns:xlink="http://www.w3.org/1999/xlink">
<g id="graph0" class="graph" transform="scale(1 1) rotate(0) translate(4 966.03)">
<title>Architecture</title>
<polygon fill="white" stroke="none" points="-4,4 -4,-966.03 1100,-966.03 1100,4 -4,4"/>
<!-- BenchDashboard.exe -->
<g id="node1" class="node"><title>BenchDashboard.exe</title>
<polygon fill="#86ae1e" stroke="#86ae1e" points="332,-880 178,-880 178,-844 332,-844 332,-880"/>
<text text-anchor="middle" x="255" y="-858.3" font-family="Helvetica,sans-Serif" font-size="14.00" fill="#ffffff">BenchDashboard.exe</text>
</g>
<!-- BenchLib.dll -->
<g id="node2" class="node"><title>BenchLib.dll</title>
<polygon fill="#86ae1e" stroke="#86ae1e" points="1096,-899 1001,-899 1001,-863 1096,-863 1096,-899"/>
<text text-anchor="middle" x="1048.5" y="-877.3" font-family="Helvetica,sans-Serif" font-size="14.00" fill="#ffffff">BenchLib.dll</text>
</g>
<!-- env.cmd -->
<g id="node3" class="node"><title>env.cmd</title>
<polygon fill="#339999" stroke="#339999" points="484,-650 413,-650 413,-614 484,-614 484,-650"/>
<text text-anchor="middle" x="448.5" y="-628.3" font-family="Helvetica,sans-Serif" font-size="14.00" fill="#ffffff">env.cmd</text>
</g>
<!-- archive.cmd -->
<g id="node4" class="node"><title>archive.cmd</title>
<polygon fill="#339999" stroke="#339999" points="117.5,-188 24.5,-188 24.5,-152 117.5,-152 117.5,-188"/>
<text text-anchor="middle" x="71" y="-166.3" font-family="Helvetica,sans-Serif" font-size="14.00" fill="#ffffff">archive.cmd</text>
</g>
<!-- Archive&#45;Project.ps1 -->
<g id="node7" class="node"><title>Archive&#45;Project.ps1</title>
<polygon fill="#1ba1e2" stroke="#1ba1e2" points="325.5,-242 184.5,-242 184.5,-206 325.5,-206 325.5,-242"/>
<text text-anchor="middle" x="255" y="-220.3" font-family="Helvetica,sans-Serif" font-size="14.00" fill="#ffffff">Archive&#45;Project.ps1</text>
</g>
<!-- archive.cmd&#45;&gt;Archive&#45;Project.ps1 -->
<g id="edge1" class="edge"><title>archive.cmd&#45;&gt;Archive&#45;Project.ps1</title>
<path fill="none" stroke="#404040" d="M117.926,-183.626C137.832,-189.532 161.587,-196.581 183.635,-203.123"/>
<polygon fill="#404040" stroke="#404040" points="182.711,-206.499 193.294,-205.988 184.703,-199.788 182.711,-206.499"/>
</g>
<!-- editor.cmd -->
<g id="node5" class="node"><title>editor.cmd</title>
<polygon fill="#339999" stroke="#339999" points="113,-350 29,-350 29,-314 113,-314 113,-350"/>
<text text-anchor="middle" x="71" y="-328.3" font-family="Helvetica,sans-Serif" font-size="14.00" fill="#ffffff">editor.cmd</text>
</g>
<!-- Edit&#45;Project.ps1 -->
<g id="node12" class="node"><title>Edit&#45;Project.ps1</title>
<polygon fill="#1ba1e2" stroke="#1ba1e2" points="314.5,-296 195.5,-296 195.5,-260 314.5,-260 314.5,-296"/>
<text text-anchor="middle" x="255" y="-274.3" font-family="Helvetica,sans-Serif" font-size="14.00" fill="#ffffff">Edit&#45;Project.ps1</text>
</g>
<!-- editor.cmd&#45;&gt;Edit&#45;Project.ps1 -->
<g id="edge2" class="edge"><title>editor.cmd&#45;&gt;Edit&#45;Project.ps1</title>
<path fill="none" stroke="#404040" d="M113.299,-319.747C134.592,-313.429 161.122,-305.557 185.388,-298.357"/>
<polygon fill="#404040" stroke="#404040" points="186.678,-301.626 195.269,-295.426 184.687,-294.915 186.678,-301.626"/>
</g>
<!-- init.cmd -->
<g id="node6" class="node"><title>init.cmd</title>
<polygon fill="#339999" stroke="#339999" points="481,-842 416,-842 416,-806 481,-806 481,-842"/>
<text text-anchor="middle" x="448.5" y="-820.3" font-family="Helvetica,sans-Serif" font-size="14.00" fill="#ffffff">init.cmd</text>
</g>
<!-- bench.lib.ps1 -->
<g id="node8" class="node"><title>bench.lib.ps1</title>
<polygon fill="#0072c6" stroke="#0072c6" points="666,-339 565,-339 565,-303 666,-303 666,-339"/>
<text text-anchor="middle" x="615.5" y="-317.3" font-family="Helvetica,sans-Serif" font-size="14.00" fill="#ffffff">bench.lib.ps1</text>
</g>
<!-- Archive&#45;Project.ps1&#45;&gt;bench.lib.ps1 -->
<g id="edge3" class="edge"><title>Archive&#45;Project.ps1&#45;&gt;bench.lib.ps1</title>
<path fill="none" stroke="#404040" d="M325.7,-210.753C382.885,-203.212 464.62,-200.237 529,-229 559.096,-242.446 583.462,-272.093 598.371,-294.118"/>
<polygon fill="#404040" stroke="#404040" points="595.59,-296.262 603.985,-302.726 601.454,-292.438 595.59,-296.262"/>
</g>
<!-- Select&#45;Project.ps1 -->
<g id="node21" class="node"><title>Select&#45;Project.ps1</title>
<polygon fill="#1ba1e2" stroke="#1ba1e2" points="515.5,-274 381.5,-274 381.5,-238 515.5,-238 515.5,-274"/>
<text text-anchor="middle" x="448.5" y="-252.3" font-family="Helvetica,sans-Serif" font-size="14.00" fill="#ffffff">Select&#45;Project.ps1</text>
</g>
<!-- Archive&#45;Project.ps1&#45;&gt;Select&#45;Project.ps1 -->
<g id="edge4" class="edge"><title>Archive&#45;Project.ps1&#45;&gt;Select&#45;Project.ps1</title>
<path fill="none" stroke="#404040" d="M325.678,-235.643C340.449,-238.112 356.117,-240.73 371.122,-243.237"/>
<polygon fill="#404040" stroke="#404040" points="370.945,-246.756 381.385,-244.952 372.099,-239.852 370.945,-246.756"/>
</g>
<!-- config.lib.ps1 -->
<g id="node11" class="node"><title>config.lib.ps1</title>
<polygon fill="#0072c6" stroke="#0072c6" points="803,-719 702,-719 702,-683 803,-683 803,-719"/>
<text text-anchor="middle" x="752.5" y="-697.3" font-family="Helvetica,sans-Serif" font-size="14.00" fill="#ffffff">config.lib.ps1</text>
</g>
<!-- bench.lib.ps1&#45;&gt;config.lib.ps1 -->
<g id="edge5" class="edge"><title>bench.lib.ps1&#45;&gt;config.lib.ps1</title>
<path fill="none" stroke="#404040" d="M622.921,-339.073C644.641,-400.21 715.466,-599.57 741.651,-673.278"/>
<polygon fill="#404040" stroke="#404040" points="738.394,-674.565 745.04,-682.817 744.991,-672.222 738.394,-674.565"/>
</g>
<!-- profile.ps1 -->
<g id="node16" class="node"><title>profile.ps1</title>
<polygon fill="#1ba1e2" stroke="#1ba1e2" points="794.5,-511 710.5,-511 710.5,-475 794.5,-475 794.5,-511"/>
<text text-anchor="middle" x="752.5" y="-489.3" font-family="Helvetica,sans-Serif" font-size="14.00" fill="#ffffff">profile.ps1</text>
</g>
<!-- bench.lib.ps1&#45;&gt;profile.ps1 -->
<g id="edge6" class="edge"><title>bench.lib.ps1&#45;&gt;profile.ps1</title>
<path fill="none" stroke="#404040" d="M630.692,-339.082C654.696,-369.664 703.392,-431.707 731.068,-466.968"/>
<polygon fill="#404040" stroke="#404040" points="728.368,-469.197 737.295,-474.902 733.874,-464.875 728.368,-469.197"/>
</g>
<!-- Clone&#45;GitProject.ps1 -->
<g id="node9" class="node"><title>Clone&#45;GitProject.ps1</title>
<polygon fill="#1ba1e2" stroke="#1ba1e2" points="523,-512 374,-512 374,-476 523,-476 523,-512"/>
<text text-anchor="middle" x="448.5" y="-490.3" font-family="Helvetica,sans-Serif" font-size="14.00" fill="#ffffff">Clone&#45;GitProject.ps1</text>
</g>
<!-- Clone&#45;GitProject.ps1&#45;&gt;bench.lib.ps1 -->
<g id="edge7" class="edge"><title>Clone&#45;GitProject.ps1&#45;&gt;bench.lib.ps1</title>
<path fill="none" stroke="#404040" d="M515.716,-475.8C520.439,-473.235 524.934,-470.317 529,-467 567.781,-435.368 592.813,-381.173 605.219,-348.458"/>
<polygon fill="#404040" stroke="#404040" points="608.514,-349.637 608.665,-339.043 601.941,-347.231 608.514,-349.637"/>
</g>
<!-- common.lib.ps1 -->
<g id="node10" class="node"><title>common.lib.ps1</title>
<polygon fill="#0072c6" stroke="#0072c6" points="961,-742 843,-742 843,-706 961,-706 961,-742"/>
<text text-anchor="middle" x="902" y="-720.3" font-family="Helvetica,sans-Serif" font-size="14.00" fill="#ffffff">common.lib.ps1</text>
</g>
<!-- config.lib.ps1&#45;&gt;common.lib.ps1 -->
<g id="edge8" class="edge"><title>config.lib.ps1&#45;&gt;common.lib.ps1</title>
<path fill="none" stroke="#404040" d="M803.026,-708.723C812.629,-710.22 822.85,-711.814 832.927,-713.385"/>
<polygon fill="#404040" stroke="#404040" points="832.51,-716.862 842.93,-714.945 833.589,-709.946 832.51,-716.862"/>
</g>
<!-- Load&#45;ClrLibs.ps1 -->
<g id="node14" class="node"><title>Load&#45;ClrLibs.ps1</title>
<polygon fill="#1ba1e2" stroke="#1ba1e2" points="965,-899 839,-899 839,-863 965,-863 965,-899"/>
<text text-anchor="middle" x="902" y="-877.3" font-family="Helvetica,sans-Serif" font-size="14.00" fill="#ffffff">Load&#45;ClrLibs.ps1</text>
</g>
<!-- config.lib.ps1&#45;&gt;Load&#45;ClrLibs.ps1 -->
<g id="edge9" class="edge"><title>config.lib.ps1&#45;&gt;Load&#45;ClrLibs.ps1</title>
<path fill="none" stroke="#404040" d="M768.455,-719.25C794.806,-751.407 849.574,-818.243 879.809,-855.14"/>
<polygon fill="#404040" stroke="#404040" points="877.179,-857.453 886.225,-862.969 882.594,-853.016 877.179,-857.453"/>
</g>
<!-- Edit&#45;Project.ps1&#45;&gt;bench.lib.ps1 -->
<g id="edge10" class="edge"><title>Edit&#45;Project.ps1&#45;&gt;bench.lib.ps1</title>
<path fill="none" stroke="#404040" d="M314.798,-285.052C380.981,-292.991 487.939,-305.82 554.579,-313.813"/>
<polygon fill="#404040" stroke="#404040" points="554.57,-317.337 564.916,-315.053 555.404,-310.387 554.57,-317.337"/>
</g>
<!-- Edit&#45;Project.ps1&#45;&gt;Select&#45;Project.ps1 -->
<g id="edge11" class="edge"><title>Edit&#45;Project.ps1&#45;&gt;Select&#45;Project.ps1</title>
<path fill="none" stroke="#404040" d="M314.758,-271.25C332.651,-269.194 352.582,-266.904 371.446,-264.737"/>
<polygon fill="#404040" stroke="#404040" points="371.961,-268.201 381.496,-263.583 371.162,-261.247 371.961,-268.201"/>
</g>
<!-- Initialize&#45;Bench.ps1 -->
<g id="node13" class="node"><title>Initialize&#45;Bench.ps1</title>
<polygon fill="#1ba1e2" stroke="#1ba1e2" points="141,-934 1,-934 1,-898 141,-898 141,-934"/>
<text text-anchor="middle" x="71" y="-912.3" font-family="Helvetica,sans-Serif" font-size="14.00" fill="#ffffff">Initialize&#45;Bench.ps1</text>
</g>
<!-- Initialize&#45;Bench.ps1&#45;&gt;BenchDashboard.exe -->
<g id="edge12" class="edge"><title>Initialize&#45;Bench.ps1&#45;&gt;BenchDashboard.exe</title>
<path fill="none" stroke="#404040" d="M132.856,-897.944C149.097,-893.125 166.781,-887.878 183.492,-882.92"/>
<polygon fill="#404040" stroke="#404040" points="184.61,-886.239 193.201,-880.039 182.618,-879.528 184.61,-886.239"/>
</g>
<!-- Initialize&#45;Bench.ps1&#45;&gt;Load&#45;ClrLibs.ps1 -->
<g id="edge13" class="edge"><title>Initialize&#45;Bench.ps1&#45;&gt;Load&#45;ClrLibs.ps1</title>
<path fill="none" stroke="#404040" d="M134.95,-934.005C149.019,-937.476 163.939,-940.732 178,-943 296.543,-962.118 327.425,-962 447.5,-962 447.5,-962 447.5,-962 616.5,-962 702.67,-962 798.104,-927.202 853.638,-903.222"/>
<polygon fill="#404040" stroke="#404040" points="855.112,-906.398 862.866,-899.178 852.302,-899.986 855.112,-906.398"/>
</g>
<!-- bench&#45;ctl.cmd -->
<g id="node30" class="node"><title>bench&#45;ctl.cmd</title>
<polygon fill="#267d41" stroke="#267d41" points="308,-934 202,-934 202,-898 308,-898 308,-934"/>
<text text-anchor="middle" x="255" y="-912.3" font-family="Helvetica,sans-Serif" font-size="14.00" fill="#ffffff">bench&#45;ctl.cmd</text>
</g>
<!-- Initialize&#45;Bench.ps1&#45;&gt;bench&#45;ctl.cmd -->
<g id="edge14" class="edge"><title>Initialize&#45;Bench.ps1&#45;&gt;bench&#45;ctl.cmd</title>
<path fill="none" stroke="#404040" d="M141.066,-909.427C157.804,-909.152 175.596,-909.197 191.986,-909.564"/>
<polygon fill="#404040" stroke="#404040" points="191.898,-913.063 201.988,-909.834 192.086,-906.065 191.898,-913.063"/>
</g>
<!-- Load&#45;ClrLibs.ps1&#45;&gt;BenchLib.dll -->
<g id="edge15" class="edge"><title>Load&#45;ClrLibs.ps1&#45;&gt;BenchLib.dll</title>
<path fill="none" stroke="#404040" d="M965.12,-881C973.603,-881 982.277,-881 990.66,-881"/>
<polygon fill="#404040" stroke="#404040" points="990.71,-884.5 1000.71,-881 990.71,-877.5 990.71,-884.5"/>
</g>
<!-- New&#45;Project.ps1 -->
<g id="node15" class="node"><title>New&#45;Project.ps1</title>
<polygon fill="#1ba1e2" stroke="#1ba1e2" points="509.5,-458 387.5,-458 387.5,-422 509.5,-422 509.5,-458"/>
<text text-anchor="middle" x="448.5" y="-436.3" font-family="Helvetica,sans-Serif" font-size="14.00" fill="#ffffff">New&#45;Project.ps1</text>
</g>
<!-- New&#45;Project.ps1&#45;&gt;bench.lib.ps1 -->
<g id="edge16" class="edge"><title>New&#45;Project.ps1&#45;&gt;bench.lib.ps1</title>
<path fill="none" stroke="#404040" d="M509.618,-423.204C516.392,-420.268 523.005,-416.883 529,-413 555.904,-395.576 580.102,-367.828 595.831,-347.357"/>
<polygon fill="#404040" stroke="#404040" points="598.838,-349.181 602.036,-339.081 593.237,-344.982 598.838,-349.181"/>
</g>
<!-- PsExecHost.ps1 -->
<g id="node17" class="node"><title>PsExecHost.ps1</title>
<polygon fill="#1ba1e2" stroke="#1ba1e2" points="510,-90 387,-90 387,-54 510,-54 510,-90"/>
<text text-anchor="middle" x="448.5" y="-68.3" font-family="Helvetica,sans-Serif" font-size="14.00" fill="#ffffff">PsExecHost.ps1</text>
</g>
<!-- PsExecHost.ps1&#45;&gt;bench.lib.ps1 -->
<g id="edge17" class="edge"><title>PsExecHost.ps1&#45;&gt;bench.lib.ps1</title>
<path fill="none" stroke="#404040" d="M510.079,-86.1076C517.008,-89.5175 523.534,-93.7492 529,-99 584.681,-152.485 604.634,-246.235 611.347,-292.925"/>
<polygon fill="#404040" stroke="#404040" points="607.891,-293.49 612.685,-302.938 614.829,-292.562 607.891,-293.49"/>
</g>
<!-- reg.lib.ps1 -->
<g id="node18" class="node"><title>reg.lib.ps1</title>
<polygon fill="#0072c6" stroke="#0072c6" points="657,-90 574,-90 574,-54 657,-54 657,-90"/>
<text text-anchor="middle" x="615.5" y="-68.3" font-family="Helvetica,sans-Serif" font-size="14.00" fill="#ffffff">reg.lib.ps1</text>
</g>
<!-- PsExecHost.ps1&#45;&gt;reg.lib.ps1 -->
<g id="edge18" class="edge"><title>PsExecHost.ps1&#45;&gt;reg.lib.ps1</title>
<path fill="none" stroke="#404040" d="M510.003,-72C527.597,-72 546.632,-72 563.574,-72"/>
<polygon fill="#404040" stroke="#404040" points="563.821,-75.5001 573.821,-72 563.821,-68.5001 563.821,-75.5001"/>
</g>
<!-- Run&#45;Adorned.ps1 -->
<g id="node19" class="node"><title>Run&#45;Adorned.ps1</title>
<polygon fill="#1ba1e2" stroke="#1ba1e2" points="513,-144 384,-144 384,-108 513,-108 513,-144"/>
<text text-anchor="middle" x="448.5" y="-122.3" font-family="Helvetica,sans-Serif" font-size="14.00" fill="#ffffff">Run&#45;Adorned.ps1</text>
</g>
<!-- Run&#45;Adorned.ps1&#45;&gt;bench.lib.ps1 -->
<g id="edge19" class="edge"><title>Run&#45;Adorned.ps1&#45;&gt;bench.lib.ps1</title>
<path fill="none" stroke="#404040" d="M508.343,-144.053C515.8,-147.904 522.931,-152.511 529,-158 570.31,-195.357 595.002,-257.403 606.555,-293.203"/>
<polygon fill="#404040" stroke="#404040" points="603.286,-294.478 609.596,-302.989 609.971,-292.401 603.286,-294.478"/>
</g>
<!-- Run&#45;Adorned.ps1&#45;&gt;reg.lib.ps1 -->
<g id="edge20" class="edge"><title>Run&#45;Adorned.ps1&#45;&gt;reg.lib.ps1</title>
<path fill="none" stroke="#404040" d="M504.902,-107.869C524.115,-101.58 545.535,-94.5704 564.305,-88.4275"/>
<polygon fill="#404040" stroke="#404040" points="565.438,-91.7394 573.853,-85.3026 563.261,-85.0866 565.438,-91.7394"/>
</g>
<!-- Run&#45;CustomScript.ps1 -->
<g id="node20" class="node"><title>Run&#45;CustomScript.ps1</title>
<polygon fill="#1ba1e2" stroke="#1ba1e2" points="529,-36 368,-36 368,-0 529,-0 529,-36"/>
<text text-anchor="middle" x="448.5" y="-14.3" font-family="Helvetica,sans-Serif" font-size="14.00" fill="#ffffff">Run&#45;CustomScript.ps1</text>
</g>
<!-- Run&#45;CustomScript.ps1&#45;&gt;bench.lib.ps1 -->
<g id="edge21" class="edge"><title>Run&#45;CustomScript.ps1&#45;&gt;bench.lib.ps1</title>
<path fill="none" stroke="#404040" d="M518.111,-36.1626C522.064,-38.7288 525.747,-41.6575 529,-45 564.06,-81.0192 596.625,-229.786 609.115,-292.701"/>
<polygon fill="#404040" stroke="#404040" points="605.72,-293.579 611.078,-302.72 612.59,-292.233 605.72,-293.579"/>
</g>
<!-- Run&#45;CustomScript.ps1&#45;&gt;reg.lib.ps1 -->
<g id="edge22" class="edge"><title>Run&#45;CustomScript.ps1&#45;&gt;reg.lib.ps1</title>
<path fill="none" stroke="#404040" d="M504.902,-36.1314C524.115,-42.4195 545.535,-49.4296 564.305,-55.5725"/>
<polygon fill="#404040" stroke="#404040" points="563.261,-58.9134 573.853,-58.6974 565.438,-52.2606 563.261,-58.9134"/>
</g>
<!-- Select&#45;Project.ps1&#45;&gt;bench.lib.ps1 -->
<g id="edge23" class="edge"><title>Select&#45;Project.ps1&#45;&gt;bench.lib.ps1</title>
<path fill="none" stroke="#404040" d="M495.462,-274.106C515.308,-281.924 538.689,-291.135 559.451,-299.314"/>
<polygon fill="#404040" stroke="#404040" points="558.198,-302.582 568.785,-302.991 560.764,-296.069 558.198,-302.582"/>
</g>
<!-- Setup&#45;Bench.ps1 -->
<g id="node22" class="node"><title>Setup&#45;Bench.ps1</title>
<polygon fill="#1ba1e2" stroke="#1ba1e2" points="512,-788 385,-788 385,-752 512,-752 512,-788"/>
<text text-anchor="middle" x="448.5" y="-766.3" font-family="Helvetica,sans-Serif" font-size="14.00" fill="#ffffff">Setup&#45;Bench.ps1</text>
</g>
<!-- Setup&#45;Bench.ps1&#45;&gt;bench.lib.ps1 -->
<g id="edge24" class="edge"><title>Setup&#45;Bench.ps1&#45;&gt;bench.lib.ps1</title>
<path fill="none" stroke="#404040" d="M465.925,-751.722C483.922,-730.766 512.431,-694.689 529,-659 579.269,-550.722 602.829,-408.668 610.998,-349.146"/>
<polygon fill="#404040" stroke="#404040" points="614.496,-349.394 612.347,-339.02 607.557,-348.47 614.496,-349.394"/>
</g>
<!-- Shell&#45;Project.ps1 -->
<g id="node23" class="node"><title>Shell&#45;Project.ps1</title>
<polygon fill="#1ba1e2" stroke="#1ba1e2" points="317.5,-350 192.5,-350 192.5,-314 317.5,-314 317.5,-350"/>
<text text-anchor="middle" x="255" y="-328.3" font-family="Helvetica,sans-Serif" font-size="14.00" fill="#ffffff">Shell&#45;Project.ps1</text>
</g>
<!-- Shell&#45;Project.ps1&#45;&gt;bench.lib.ps1 -->
<g id="edge25" class="edge"><title>Shell&#45;Project.ps1&#45;&gt;bench.lib.ps1</title>
<path fill="none" stroke="#404040" d="M317.628,-330.109C384.044,-328.071 489.031,-324.85 554.72,-322.834"/>
<polygon fill="#404040" stroke="#404040" points="555.025,-326.327 564.913,-322.521 554.811,-319.33 555.025,-326.327"/>
</g>
<!-- Shell&#45;Project.ps1&#45;&gt;Select&#45;Project.ps1 -->
<g id="edge26" class="edge"><title>Shell&#45;Project.ps1&#45;&gt;Select&#45;Project.ps1</title>
<path fill="none" stroke="#404040" d="M308.074,-313.966C316.115,-311.047 324.302,-307.997 332,-305 353.553,-296.608 377.097,-286.748 397.273,-278.081"/>
<polygon fill="#404040" stroke="#404040" points="398.789,-281.239 406.584,-274.064 396.016,-274.812 398.789,-281.239"/>
</g>
<!-- Shell.ps1 -->
<g id="node24" class="node"><title>Shell.ps1</title>
<polygon fill="#1ba1e2" stroke="#1ba1e2" points="653.5,-742 577.5,-742 577.5,-706 653.5,-706 653.5,-742"/>
<text text-anchor="middle" x="615.5" y="-720.3" font-family="Helvetica,sans-Serif" font-size="14.00" fill="#ffffff">Shell.ps1</text>
</g>
<!-- Shell.ps1&#45;&gt;common.lib.ps1 -->
<g id="edge27" class="edge"><title>Shell.ps1&#45;&gt;common.lib.ps1</title>
<path fill="none" stroke="#404040" d="M653.521,-726.11C668.56,-726.869 686.104,-727.628 702,-728 746.877,-729.049 758.12,-728.916 803,-728 812.603,-727.804 822.732,-727.5 832.689,-727.146"/>
<polygon fill="#404040" stroke="#404040" points="833.111,-730.632 842.973,-726.76 832.849,-723.637 833.111,-730.632"/>
</g>
<!-- Shell.ps1&#45;&gt;config.lib.ps1 -->
<g id="edge28" class="edge"><title>Shell.ps1&#45;&gt;config.lib.ps1</title>
<path fill="none" stroke="#404040" d="M653.747,-717.654C665.625,-715.63 679.08,-713.338 692.124,-711.116"/>
<polygon fill="#404040" stroke="#404040" points="692.716,-714.566 701.986,-709.436 691.541,-707.665 692.716,-714.566"/>
</g>
<!-- Shell.ps1&#45;&gt;profile.ps1 -->
<g id="edge29" class="edge"><title>Shell.ps1&#45;&gt;profile.ps1</title>
<path fill="none" stroke="#404040" d="M627.093,-705.874C650.752,-665.391 707.989,-567.453 735.804,-519.858"/>
<polygon fill="#404040" stroke="#404040" points="738.932,-521.442 740.956,-511.042 732.888,-517.91 738.932,-521.442"/>
</g>
<!-- Start&#45;Editor.ps1 -->
<g id="node25" class="node"><title>Start&#45;Editor.ps1</title>
<polygon fill="#1ba1e2" stroke="#1ba1e2" points="506.5,-404 390.5,-404 390.5,-368 506.5,-368 506.5,-404"/>
<text text-anchor="middle" x="448.5" y="-382.3" font-family="Helvetica,sans-Serif" font-size="14.00" fill="#ffffff">Start&#45;Editor.ps1</text>
</g>
<!-- Start&#45;Editor.ps1&#45;&gt;bench.lib.ps1 -->
<g id="edge30" class="edge"><title>Start&#45;Editor.ps1&#45;&gt;bench.lib.ps1</title>
<path fill="none" stroke="#404040" d="M495.462,-367.894C515.308,-360.076 538.689,-350.865 559.451,-342.686"/>
<polygon fill="#404040" stroke="#404040" points="560.764,-345.931 568.785,-339.009 558.198,-339.418 560.764,-345.931"/>
</g>
<!-- Upgrade&#45;Bench.ps1 -->
<g id="node26" class="node"><title>Upgrade&#45;Bench.ps1</title>
<polygon fill="#1ba1e2" stroke="#1ba1e2" points="520.5,-896 376.5,-896 376.5,-860 520.5,-860 520.5,-896"/>
<text text-anchor="middle" x="448.5" y="-874.3" font-family="Helvetica,sans-Serif" font-size="14.00" fill="#ffffff">Upgrade&#45;Bench.ps1</text>
</g>
<!-- Watch&#45;Project.ps1 -->
<g id="node27" class="node"><title>Watch&#45;Project.ps1</title>
<polygon fill="#1ba1e2" stroke="#1ba1e2" points="322,-188 188,-188 188,-152 322,-152 322,-188"/>
<text text-anchor="middle" x="255" y="-166.3" font-family="Helvetica,sans-Serif" font-size="14.00" fill="#ffffff">Watch&#45;Project.ps1</text>
</g>
<!-- Watch&#45;Project.ps1&#45;&gt;bench.lib.ps1 -->
<g id="edge31" class="edge"><title>Watch&#45;Project.ps1&#45;&gt;bench.lib.ps1</title>
<path fill="none" stroke="#404040" d="M322.195,-163.04C380.609,-160.104 466.017,-163.894 529,-201 564.882,-222.14 589.705,-264.924 603.023,-293.274"/>
<polygon fill="#404040" stroke="#404040" points="599.947,-294.967 607.253,-302.64 606.327,-292.086 599.947,-294.967"/>
</g>
<!-- Watch&#45;Project.ps1&#45;&gt;Select&#45;Project.ps1 -->
<g id="edge32" class="edge"><title>Watch&#45;Project.ps1&#45;&gt;Select&#45;Project.ps1</title>
<path fill="none" stroke="#404040" d="M309.495,-188.008C317.111,-190.86 324.799,-193.897 332,-197 356.97,-207.758 384.081,-221.494 405.758,-233.005"/>
<polygon fill="#404040" stroke="#404040" points="404.225,-236.154 414.693,-237.787 407.528,-229.982 404.225,-236.154"/>
</g>
<!-- bench&#45;bash.cmd -->
<g id="node28" class="node"><title>bench&#45;bash.cmd</title>
<polygon fill="#267d41" stroke="#267d41" points="316,-604 194,-604 194,-568 316,-568 316,-604"/>
<text text-anchor="middle" x="255" y="-582.3" font-family="Helvetica,sans-Serif" font-size="14.00" fill="#ffffff">bench&#45;bash.cmd</text>
</g>
<!-- bench&#45;bash.cmd&#45;&gt;env.cmd -->
<g id="edge33" class="edge"><title>bench&#45;bash.cmd&#45;&gt;env.cmd</title>
<path fill="none" stroke="#404040" d="M316.066,-600.428C344.148,-607.174 377.009,-615.067 402.848,-621.274"/>
<polygon fill="#404040" stroke="#404040" points="402.198,-624.718 412.739,-623.65 403.833,-617.911 402.198,-624.718"/>
</g>
<!-- bench&#45;cmd.cmd -->
<g id="node29" class="node"><title>bench&#45;cmd.cmd</title>
<polygon fill="#267d41" stroke="#267d41" points="314.5,-772 195.5,-772 195.5,-736 314.5,-736 314.5,-772"/>
<text text-anchor="middle" x="255" y="-750.3" font-family="Helvetica,sans-Serif" font-size="14.00" fill="#ffffff">bench&#45;cmd.cmd</text>
</g>
<!-- bench&#45;cmd.cmd&#45;&gt;env.cmd -->
<g id="edge34" class="edge"><title>bench&#45;cmd.cmd&#45;&gt;env.cmd</title>
<path fill="none" stroke="#404040" d="M304.369,-735.896C313.755,-731.757 323.355,-727.068 332,-722 364.032,-703.222 397.111,-676.574 419.615,-657.149"/>
<polygon fill="#404040" stroke="#404040" points="422.175,-659.56 427.406,-650.347 417.571,-654.287 422.175,-659.56"/>
</g>
<!-- bench&#45;ctl.cmd&#45;&gt;env.cmd -->
<g id="edge35" class="edge"><title>bench&#45;ctl.cmd&#45;&gt;env.cmd</title>
<path fill="none" stroke="#404040" d="M308.035,-905.294C317.007,-901.427 325.517,-896.163 332,-889 376.847,-839.448 340.04,-803.703 368,-743 382.597,-711.309 406.691,-679.365 424.535,-657.935"/>
<polygon fill="#404040" stroke="#404040" points="427.243,-660.153 431.035,-650.26 421.902,-655.629 427.243,-660.153"/>
</g>
<!-- bench&#45;ctl.cmd&#45;&gt;init.cmd -->
<g id="edge36" class="edge"><title>bench&#45;ctl.cmd&#45;&gt;init.cmd</title>
<path fill="none" stroke="#404040" d="M308.25,-901.142C316.514,-897.76 324.724,-893.735 332,-889 351.499,-876.311 348.413,-863.552 368,-851 379.427,-843.677 393.058,-838.109 405.779,-833.989"/>
<polygon fill="#404040" stroke="#404040" points="407.163,-837.227 415.726,-830.988 405.141,-830.525 407.163,-837.227"/>
</g>
<!-- bench&#45;ctl.cmd&#45;&gt;Initialize&#45;Bench.ps1 -->
<g id="edge37" class="edge"><title>bench&#45;ctl.cmd&#45;&gt;Initialize&#45;Bench.ps1</title>
<path fill="none" stroke="#404040" d="M201.988,-922.166C186.137,-922.671 168.339,-922.848 151.119,-922.699"/>
<polygon fill="#404040" stroke="#404040" points="151.109,-919.198 141.066,-922.573 151.021,-926.198 151.109,-919.198"/>
</g>
<!-- bench&#45;ctl.cmd&#45;&gt;Setup&#45;Bench.ps1 -->
<g id="edge38" class="edge"><title>bench&#45;ctl.cmd&#45;&gt;Setup&#45;Bench.ps1</title>
<path fill="none" stroke="#404040" d="M308.09,-904.255C316.845,-900.488 325.262,-895.528 332,-889 363.535,-858.447 336.253,-827.332 368,-797 370.554,-794.56 373.337,-792.34 376.283,-790.32"/>
<polygon fill="#404040" stroke="#404040" points="378.167,-793.271 384.96,-785.141 374.579,-787.26 378.167,-793.271"/>
</g>
<!-- bench&#45;ctl.cmd&#45;&gt;Shell.ps1 -->
<g id="edge39" class="edge"><title>bench&#45;ctl.cmd&#45;&gt;Shell.ps1</title>
<path fill="none" stroke="#404040" d="M308.097,-928.794C366.9,-940.09 462.952,-948.735 529,-905 581.646,-870.14 602.63,-793.594 610.377,-752.09"/>
<polygon fill="#404040" stroke="#404040" points="613.85,-752.55 612.112,-742.099 606.953,-751.353 613.85,-752.55"/>
</g>
<!-- bench&#45;ctl.cmd&#45;&gt;Upgrade&#45;Bench.ps1 -->
<g id="edge40" class="edge"><title>bench&#45;ctl.cmd&#45;&gt;Upgrade&#45;Bench.ps1</title>
<path fill="none" stroke="#404040" d="M308.075,-905.667C326.077,-902.094 346.701,-898.002 366.467,-894.08"/>
<polygon fill="#404040" stroke="#404040" points="367.268,-897.489 376.396,-892.11 365.906,-890.623 367.268,-897.489"/>
</g>
<!-- bench&#45;ps.cmd -->
<g id="node31" class="node"><title>bench&#45;ps.cmd</title>
<polygon fill="#267d41" stroke="#267d41" points="308.5,-826 201.5,-826 201.5,-790 308.5,-790 308.5,-826"/>
<text text-anchor="middle" x="255" y="-804.3" font-family="Helvetica,sans-Serif" font-size="14.00" fill="#ffffff">bench&#45;ps.cmd</text>
</g>
<!-- bench&#45;ps.cmd&#45;&gt;env.cmd -->
<g id="edge41" class="edge"><title>bench&#45;ps.cmd&#45;&gt;env.cmd</title>
<path fill="none" stroke="#404040" d="M308.77,-795.207C317.157,-791.566 325.271,-786.919 332,-781 358.565,-757.633 347.096,-738.544 368,-710 382.334,-690.427 401.714,-671.303 417.751,-656.891"/>
<polygon fill="#404040" stroke="#404040" points="420.136,-659.453 425.318,-650.212 415.504,-654.205 420.136,-659.453"/>
</g>
<!-- bench&#45;ps.cmd&#45;&gt;Shell.ps1 -->
<g id="edge42" class="edge"><title>bench&#45;ps.cmd&#45;&gt;Shell.ps1</title>
<path fill="none" stroke="#404040" d="M308.65,-792.978C316.778,-789.63 324.841,-785.659 332,-781 351.499,-768.311 346.998,-753.007 368,-743 431.801,-712.599 515.505,-713.445 567.115,-717.919"/>
<polygon fill="#404040" stroke="#404040" points="567.022,-721.426 577.308,-718.887 567.683,-714.457 567.022,-721.426"/>
</g>
<!-- clone&#45;git&#45;project.cmd -->
<g id="node32" class="node"><title>clone&#45;git&#45;project.cmd</title>
<polygon fill="#267d41" stroke="#267d41" points="330,-512 180,-512 180,-476 330,-476 330,-512"/>
<text text-anchor="middle" x="255" y="-490.3" font-family="Helvetica,sans-Serif" font-size="14.00" fill="#ffffff">clone&#45;git&#45;project.cmd</text>
</g>
<!-- clone&#45;git&#45;project.cmd&#45;&gt;env.cmd -->
<g id="edge43" class="edge"><title>clone&#45;git&#45;project.cmd&#45;&gt;env.cmd</title>
<path fill="none" stroke="#404040" d="M305.907,-512.101C314.874,-516.159 323.927,-520.82 332,-526 367.603,-548.847 402.55,-583.025 424.513,-606.354"/>
<polygon fill="#404040" stroke="#404040" points="422.076,-608.872 431.446,-613.817 427.204,-604.108 422.076,-608.872"/>
</g>
<!-- clone&#45;git&#45;project.cmd&#45;&gt;Clone&#45;GitProject.ps1 -->
<g id="edge44" class="edge"><title>clone&#45;git&#45;project.cmd&#45;&gt;Clone&#45;GitProject.ps1</title>
<path fill="none" stroke="#404040" d="M330.039,-494C341.079,-494 352.525,-494 363.748,-494"/>
<polygon fill="#404040" stroke="#404040" points="363.974,-497.5 373.973,-494 363.973,-490.5 363.974,-497.5"/>
</g>
<!-- new&#45;project.cmd -->
<g id="node33" class="node"><title>new&#45;project.cmd</title>
<polygon fill="#267d41" stroke="#267d41" points="316,-458 194,-458 194,-422 316,-422 316,-458"/>
<text text-anchor="middle" x="255" y="-436.3" font-family="Helvetica,sans-Serif" font-size="14.00" fill="#ffffff">new&#45;project.cmd</text>
</g>
<!-- new&#45;project.cmd&#45;&gt;env.cmd -->
<g id="edge45" class="edge"><title>new&#45;project.cmd&#45;&gt;env.cmd</title>
<path fill="none" stroke="#404040" d="M316.039,-457.089C321.707,-459.929 327.141,-463.212 332,-467 354.75,-484.732 351.6,-497.272 368,-521 388.107,-550.092 411.78,-582.976 428.033,-605.351"/>
<polygon fill="#404040" stroke="#404040" points="425.373,-607.645 434.087,-613.672 431.034,-603.527 425.373,-607.645"/>
</g>
<!-- new&#45;project.cmd&#45;&gt;New&#45;Project.ps1 -->
<g id="edge46" class="edge"><title>new&#45;project.cmd&#45;&gt;New&#45;Project.ps1</title>
<path fill="none" stroke="#404040" d="M316.066,-440C335.49,-440 357.2,-440 377.292,-440"/>
<polygon fill="#404040" stroke="#404040" points="377.318,-443.5 387.318,-440 377.318,-436.5 377.318,-443.5"/>
</g>
<!-- open&#45;editor.cmd -->
<g id="node34" class="node"><title>open&#45;editor.cmd</title>
<polygon fill="#267d41" stroke="#267d41" points="315.5,-404 194.5,-404 194.5,-368 315.5,-368 315.5,-404"/>
<text text-anchor="middle" x="255" y="-382.3" font-family="Helvetica,sans-Serif" font-size="14.00" fill="#ffffff">open&#45;editor.cmd</text>
</g>
<!-- open&#45;editor.cmd&#45;&gt;env.cmd -->
<g id="edge47" class="edge"><title>open&#45;editor.cmd&#45;&gt;env.cmd</title>
<path fill="none" stroke="#404040" d="M315.667,-401.004C321.681,-404.253 327.294,-408.201 332,-413 367.425,-449.126 345.012,-475.927 368,-521 383.948,-552.269 408.046,-584.503 425.53,-606.124"/>
<polygon fill="#404040" stroke="#404040" points="422.83,-608.351 431.876,-613.867 428.244,-603.914 422.83,-608.351"/>
</g>
<!-- open&#45;editor.cmd&#45;&gt;Start&#45;Editor.ps1 -->
<g id="edge48" class="edge"><title>open&#45;editor.cmd&#45;&gt;Start&#45;Editor.ps1</title>
<path fill="none" stroke="#404040" d="M315.542,-386C336.017,-386 359.083,-386 380.136,-386"/>
<polygon fill="#404040" stroke="#404040" points="380.289,-389.5 390.289,-386 380.289,-382.5 380.289,-389.5"/>
</g>
<!-- project&#45;backup.cmd -->
<g id="node35" class="node"><title>project&#45;backup.cmd</title>
<polygon fill="#267d41" stroke="#267d41" points="142,-296 0,-296 0,-260 142,-260 142,-296"/>
<text text-anchor="middle" x="71" y="-274.3" font-family="Helvetica,sans-Serif" font-size="14.00" fill="#ffffff">project&#45;backup.cmd</text>
</g>
<!-- project&#45;backup.cmd&#45;&gt;env.cmd -->
<g id="edge49" class="edge"><title>project&#45;backup.cmd&#45;&gt;env.cmd</title>
<path fill="none" stroke="#404040" d="M132.815,-296.037C136.248,-298.633 139.366,-301.603 142,-305 184.223,-359.459 128.166,-565.406 178,-613 209.175,-642.774 334.524,-639.586 402.736,-635.422"/>
<polygon fill="#404040" stroke="#404040" points="403.014,-638.911 412.769,-634.777 402.565,-631.926 403.014,-638.911"/>
</g>
<!-- project&#45;backup.cmd&#45;&gt;Archive&#45;Project.ps1 -->
<g id="edge50" class="edge"><title>project&#45;backup.cmd&#45;&gt;Archive&#45;Project.ps1</title>
<path fill="none" stroke="#404040" d="M132.856,-259.944C149.097,-255.125 166.781,-249.878 183.492,-244.92"/>
<polygon fill="#404040" stroke="#404040" points="184.61,-248.239 193.201,-242.039 182.618,-241.528 184.61,-248.239"/>
</g>
<!-- project&#45;editor.cmd -->
<g id="node36" class="node"><title>project&#45;editor.cmd</title>
<polygon fill="#267d41" stroke="#267d41" points="137,-471 5,-471 5,-435 137,-435 137,-471"/>
<text text-anchor="middle" x="71" y="-449.3" font-family="Helvetica,sans-Serif" font-size="14.00" fill="#ffffff">project&#45;editor.cmd</text>
</g>
<!-- project&#45;editor.cmd&#45;&gt;env.cmd -->
<g id="edge51" class="edge"><title>project&#45;editor.cmd&#45;&gt;env.cmd</title>
<path fill="none" stroke="#404040" d="M88.2137,-471.338C103.656,-489.527 126.744,-518.701 142,-547 164.217,-588.212 139.652,-619.14 178,-646 244.929,-692.879 345.752,-669.383 403.22,-649.645"/>
<polygon fill="#404040" stroke="#404040" points="404.486,-652.91 412.744,-646.271 402.149,-646.311 404.486,-652.91"/>
</g>
<!-- project&#45;editor.cmd&#45;&gt;Edit&#45;Project.ps1 -->
<g id="edge52" class="edge"><title>project&#45;editor.cmd&#45;&gt;Edit&#45;Project.ps1</title>
<path fill="none" stroke="#404040" d="M85.9668,-434.835C100.304,-416.051 123.125,-385.775 142,-359 158.62,-335.425 155.25,-322.732 178,-305 180.595,-302.977 183.355,-301.098 186.226,-299.354"/>
<polygon fill="#404040" stroke="#404040" points="188.011,-302.367 195.123,-294.514 184.666,-296.218 188.011,-302.367"/>
</g>
<!-- project&#45;ps.cmd -->
<g id="node37" class="node"><title>project&#45;ps.cmd</title>
<polygon fill="#267d41" stroke="#267d41" points="127,-592 15,-592 15,-556 127,-556 127,-592"/>
<text text-anchor="middle" x="71" y="-570.3" font-family="Helvetica,sans-Serif" font-size="14.00" fill="#ffffff">project&#45;ps.cmd</text>
</g>
<!-- project&#45;ps.cmd&#45;&gt;env.cmd -->
<g id="edge53" class="edge"><title>project&#45;ps.cmd&#45;&gt;env.cmd</title>
<path fill="none" stroke="#404040" d="M82.8638,-592.39C99.51,-618.529 134.067,-665.324 178,-684 240.989,-710.777 265.081,-698.369 332,-684 358.526,-678.304 386.311,-666.021 407.98,-654.822"/>
<polygon fill="#404040" stroke="#404040" points="409.673,-657.886 416.871,-650.112 406.396,-651.701 409.673,-657.886"/>
</g>
<!-- project&#45;ps.cmd&#45;&gt;Shell&#45;Project.ps1 -->
<g id="edge54" class="edge"><title>project&#45;ps.cmd&#45;&gt;Shell&#45;Project.ps1</title>
<path fill="none" stroke="#404040" d="M88.5873,-555.856C104.306,-537.811 127.594,-508.741 142,-480 167.142,-429.841 139.374,-399.695 178,-359 179.813,-357.089 181.771,-355.314 183.841,-353.664"/>
<polygon fill="#404040" stroke="#404040" points="186.017,-356.417 192.321,-347.901 182.083,-350.627 186.017,-356.417"/>
</g>
<!-- project&#45;watch.cmd -->
<g id="node38" class="node"><title>project&#45;watch.cmd</title>
<polygon fill="#267d41" stroke="#267d41" points="137,-242 5,-242 5,-206 137,-206 137,-242"/>
<text text-anchor="middle" x="71" y="-220.3" font-family="Helvetica,sans-Serif" font-size="14.00" fill="#ffffff">project&#45;watch.cmd</text>
</g>
<!-- project&#45;watch.cmd&#45;&gt;env.cmd -->
<g id="edge55" class="edge"><title>project&#45;watch.cmd&#45;&gt;env.cmd</title>
<path fill="none" stroke="#404040" d="M132.752,-242.086C136.201,-244.67 139.339,-247.624 142,-251 216.951,-346.071 97.2031,-430.845 178,-521 225.05,-573.499 267.144,-531.367 332,-559 362.188,-571.862 393.474,-592.138 415.859,-608.061"/>
<polygon fill="#404040" stroke="#404040" points="413.825,-610.909 423.981,-613.926 417.923,-605.234 413.825,-610.909"/>
</g>
<!-- project&#45;watch.cmd&#45;&gt;Watch&#45;Project.ps1 -->
<g id="edge56" class="edge"><title>project&#45;watch.cmd&#45;&gt;Watch&#45;Project.ps1</title>
<path fill="none" stroke="#404040" d="M132.856,-205.944C149.097,-201.125 166.781,-195.878 183.492,-190.92"/>
<polygon fill="#404040" stroke="#404040" points="184.61,-194.239 193.201,-188.039 182.618,-187.528 184.61,-194.239"/>
</g>
</g>
</svg>
