<?xml version="1.0" encoding="UTF-8" standalone="no"?>
<!DOCTYPE svg PUBLIC "-//W3C//DTD SVG 1.1//EN"
 "http://www.w3.org/Graphics/SVG/1.1/DTD/svg11.dtd">
<!-- Generated by graphviz version 2.38.0 (20140413.2041)
 -->
<!-- Title: Architecture Pages: 1 -->
<svg width="1104pt" height="855pt"
 viewBox="0.00 0.00 1104.00 855.00" xmlns="http://www.w3.org/2000/svg" xmlns:xlink="http://www.w3.org/1999/xlink">
<g id="graph0" class="graph" transform="scale(1 1) rotate(0) translate(4 851)">
<title>Architecture</title>
<polygon fill="white" stroke="none" points="-4,4 -4,-851 1100,-851 1100,4 -4,4"/>
<!-- BenchDashboard.exe -->
<g id="node1" class="node"><title>BenchDashboard.exe</title>
<polygon fill="#86ae1e" stroke="#86ae1e" points="332,-766 178,-766 178,-730 332,-730 332,-766"/>
<text text-anchor="middle" x="255" y="-744.3" font-family="Helvetica,sans-Serif" font-size="14.00" fill="#ffffff">BenchDashboard.exe</text>
</g>
<!-- BenchLib.dll -->
<g id="node2" class="node"><title>BenchLib.dll</title>
<polygon fill="#86ae1e" stroke="#86ae1e" points="1096,-754 1001,-754 1001,-718 1096,-718 1096,-754"/>
<text text-anchor="middle" x="1048.5" y="-732.3" font-family="Helvetica,sans-Serif" font-size="14.00" fill="#ffffff">BenchLib.dll</text>
</g>
<!-- archive.cmd -->
<g id="node3" class="node"><title>archive.cmd</title>
<polygon fill="#339999" stroke="#339999" points="117.5,-306 24.5,-306 24.5,-270 117.5,-270 117.5,-306"/>
<text text-anchor="middle" x="71" y="-284.3" font-family="Helvetica,sans-Serif" font-size="14.00" fill="#ffffff">archive.cmd</text>
</g>
<!-- Archive&#45;Project.ps1 -->
<g id="node6" class="node"><title>Archive&#45;Project.ps1</title>
<polygon fill="#1ba1e2" stroke="#1ba1e2" points="325.5,-360 184.5,-360 184.5,-324 325.5,-324 325.5,-360"/>
<text text-anchor="middle" x="255" y="-338.3" font-family="Helvetica,sans-Serif" font-size="14.00" fill="#ffffff">Archive&#45;Project.ps1</text>
</g>
<!-- archive.cmd&#45;&gt;Archive&#45;Project.ps1 -->
<g id="edge1" class="edge"><title>archive.cmd&#45;&gt;Archive&#45;Project.ps1</title>
<path fill="none" stroke="#404040" d="M117.926,-301.626C137.832,-307.532 161.587,-314.581 183.635,-321.123"/>
<polygon fill="#404040" stroke="#404040" points="182.711,-324.499 193.294,-323.988 184.703,-317.788 182.711,-324.499"/>
</g>
<!-- editor.cmd -->
<g id="node4" class="node"><title>editor.cmd</title>
<polygon fill="#339999" stroke="#339999" points="113,-522 29,-522 29,-486 113,-486 113,-522"/>
<text text-anchor="middle" x="71" y="-500.3" font-family="Helvetica,sans-Serif" font-size="14.00" fill="#ffffff">editor.cmd</text>
</g>
<!-- Edit&#45;Project.ps1 -->
<g id="node11" class="node"><title>Edit&#45;Project.ps1</title>
<polygon fill="#1ba1e2" stroke="#1ba1e2" points="314.5,-522 195.5,-522 195.5,-486 314.5,-486 314.5,-522"/>
<text text-anchor="middle" x="255" y="-500.3" font-family="Helvetica,sans-Serif" font-size="14.00" fill="#ffffff">Edit&#45;Project.ps1</text>
</g>
<!-- editor.cmd&#45;&gt;Edit&#45;Project.ps1 -->
<g id="edge2" class="edge"><title>editor.cmd&#45;&gt;Edit&#45;Project.ps1</title>
<path fill="none" stroke="#404040" d="M113.299,-504C134.497,-504 160.886,-504 185.064,-504"/>
<polygon fill="#404040" stroke="#404040" points="185.269,-507.5 195.269,-504 185.269,-500.5 185.269,-507.5"/>
</g>
<!-- init.cmd -->
<g id="node5" class="node"><title>init.cmd</title>
<polygon fill="#339999" stroke="#339999" points="481,-712 416,-712 416,-676 481,-676 481,-712"/>
<text text-anchor="middle" x="448.5" y="-690.3" font-family="Helvetica,sans-Serif" font-size="14.00" fill="#ffffff">init.cmd</text>
</g>
<!-- bench.lib.ps1 -->
<g id="node7" class="node"><title>bench.lib.ps1</title>
<polygon fill="#0072c6" stroke="#0072c6" points="666,-371 565,-371 565,-335 666,-335 666,-371"/>
<text text-anchor="middle" x="615.5" y="-349.3" font-family="Helvetica,sans-Serif" font-size="14.00" fill="#ffffff">bench.lib.ps1</text>
</g>
<!-- Archive&#45;Project.ps1&#45;&gt;bench.lib.ps1 -->
<g id="edge3" class="edge"><title>Archive&#45;Project.ps1&#45;&gt;bench.lib.ps1</title>
<path fill="none" stroke="#404040" d="M325.547,-344.134C392.092,-346.176 491.411,-349.223 554.554,-351.161"/>
<polygon fill="#404040" stroke="#404040" points="554.649,-354.665 564.751,-351.474 554.864,-347.668 554.649,-354.665"/>
</g>
<!-- Select&#45;Project.ps1 -->
<g id="node20" class="node"><title>Select&#45;Project.ps1</title>
<polygon fill="#1ba1e2" stroke="#1ba1e2" points="515.5,-436 381.5,-436 381.5,-400 515.5,-400 515.5,-436"/>
<text text-anchor="middle" x="448.5" y="-414.3" font-family="Helvetica,sans-Serif" font-size="14.00" fill="#ffffff">Select&#45;Project.ps1</text>
</g>
<!-- Archive&#45;Project.ps1&#45;&gt;Select&#45;Project.ps1 -->
<g id="edge4" class="edge"><title>Archive&#45;Project.ps1&#45;&gt;Select&#45;Project.ps1</title>
<path fill="none" stroke="#404040" d="M308.074,-360.034C316.115,-362.953 324.302,-366.003 332,-369 353.553,-377.392 377.097,-387.252 397.273,-395.919"/>
<polygon fill="#404040" stroke="#404040" points="396.016,-399.188 406.584,-399.936 398.789,-392.761 396.016,-399.188"/>
</g>
<!-- config.lib.ps1 -->
<g id="node10" class="node"><title>config.lib.ps1</title>
<polygon fill="#0072c6" stroke="#0072c6" points="803,-597 702,-597 702,-561 803,-561 803,-597"/>
<text text-anchor="middle" x="752.5" y="-575.3" font-family="Helvetica,sans-Serif" font-size="14.00" fill="#ffffff">config.lib.ps1</text>
</g>
<!-- bench.lib.ps1&#45;&gt;config.lib.ps1 -->
<g id="edge5" class="edge"><title>bench.lib.ps1&#45;&gt;config.lib.ps1</title>
<path fill="none" stroke="#404040" d="M627.319,-371.112C651.017,-410.784 707.609,-505.523 735.46,-552.148"/>
<polygon fill="#404040" stroke="#404040" points="732.496,-554.011 740.629,-560.801 738.506,-550.421 732.496,-554.011"/>
</g>
<!-- profile.ps1 -->
<g id="node15" class="node"><title>profile.ps1</title>
<polygon fill="#1ba1e2" stroke="#1ba1e2" points="794.5,-466 710.5,-466 710.5,-430 794.5,-430 794.5,-466"/>
<text text-anchor="middle" x="752.5" y="-444.3" font-family="Helvetica,sans-Serif" font-size="14.00" fill="#ffffff">profile.ps1</text>
</g>
<!-- bench.lib.ps1&#45;&gt;profile.ps1 -->
<g id="edge6" class="edge"><title>bench.lib.ps1&#45;&gt;profile.ps1</title>
<path fill="none" stroke="#404040" d="M642.21,-371.092C663.604,-386.148 694.233,-407.701 717.625,-424.162"/>
<polygon fill="#404040" stroke="#404040" points="715.693,-427.082 725.885,-429.975 719.722,-421.358 715.693,-427.082"/>
</g>
<!-- Clone&#45;GitProject.ps1 -->
<g id="node8" class="node"><title>Clone&#45;GitProject.ps1</title>
<polygon fill="#1ba1e2" stroke="#1ba1e2" points="523,-306 374,-306 374,-270 523,-270 523,-306"/>
<text text-anchor="middle" x="448.5" y="-284.3" font-family="Helvetica,sans-Serif" font-size="14.00" fill="#ffffff">Clone&#45;GitProject.ps1</text>
</g>
<!-- Clone&#45;GitProject.ps1&#45;&gt;bench.lib.ps1 -->
<g id="edge7" class="edge"><title>Clone&#45;GitProject.ps1&#45;&gt;bench.lib.ps1</title>
<path fill="none" stroke="#404040" d="M495.462,-306.106C515.308,-313.924 538.689,-323.135 559.451,-331.314"/>
<polygon fill="#404040" stroke="#404040" points="558.198,-334.582 568.785,-334.991 560.764,-328.069 558.198,-334.582"/>
</g>
<!-- common.lib.ps1 -->
<g id="node9" class="node"><title>common.lib.ps1</title>
<polygon fill="#0072c6" stroke="#0072c6" points="961,-620 843,-620 843,-584 961,-584 961,-620"/>
<text text-anchor="middle" x="902" y="-598.3" font-family="Helvetica,sans-Serif" font-size="14.00" fill="#ffffff">common.lib.ps1</text>
</g>
<!-- config.lib.ps1&#45;&gt;common.lib.ps1 -->
<g id="edge8" class="edge"><title>config.lib.ps1&#45;&gt;common.lib.ps1</title>
<path fill="none" stroke="#404040" d="M803.026,-586.723C812.629,-588.22 822.85,-589.814 832.927,-591.385"/>
<polygon fill="#404040" stroke="#404040" points="832.51,-594.862 842.93,-592.945 833.589,-587.946 832.51,-594.862"/>
</g>
<!-- Load&#45;ClrLibs.ps1 -->
<g id="node13" class="node"><title>Load&#45;ClrLibs.ps1</title>
<polygon fill="#1ba1e2" stroke="#1ba1e2" points="965,-754 839,-754 839,-718 965,-718 965,-754"/>
<text text-anchor="middle" x="902" y="-732.3" font-family="Helvetica,sans-Serif" font-size="14.00" fill="#ffffff">Load&#45;ClrLibs.ps1</text>
</g>
<!-- config.lib.ps1&#45;&gt;Load&#45;ClrLibs.ps1 -->
<g id="edge9" class="edge"><title>config.lib.ps1&#45;&gt;Load&#45;ClrLibs.ps1</title>
<path fill="none" stroke="#404040" d="M770.42,-597.01C796.51,-624.78 846.676,-678.177 876.661,-710.094"/>
<polygon fill="#404040" stroke="#404040" points="874.425,-712.825 883.823,-717.717 879.527,-708.032 874.425,-712.825"/>
</g>
<!-- Edit&#45;Project.ps1&#45;&gt;bench.lib.ps1 -->
<g id="edge10" class="edge"><title>Edit&#45;Project.ps1&#45;&gt;bench.lib.ps1</title>
<path fill="none" stroke="#404040" d="M314.608,-509.906C372.989,-512.952 463.173,-509.749 529,-471 564.494,-450.106 589.423,-408.064 602.869,-380.222"/>
<polygon fill="#404040" stroke="#404040" points="606.103,-381.568 607.144,-371.024 599.755,-378.617 606.103,-381.568"/>
</g>
<!-- Edit&#45;Project.ps1&#45;&gt;Select&#45;Project.ps1 -->
<g id="edge11" class="edge"><title>Edit&#45;Project.ps1&#45;&gt;Select&#45;Project.ps1</title>
<path fill="none" stroke="#404040" d="M309.495,-485.992C317.111,-483.14 324.799,-480.103 332,-477 356.97,-466.242 384.081,-452.506 405.758,-440.995"/>
<polygon fill="#404040" stroke="#404040" points="407.528,-444.018 414.693,-436.213 404.225,-437.846 407.528,-444.018"/>
</g>
<!-- Initialize&#45;Bench.ps1 -->
<g id="node12" class="node"><title>Initialize&#45;Bench.ps1</title>
<polygon fill="#1ba1e2" stroke="#1ba1e2" points="141,-739 1,-739 1,-703 141,-703 141,-739"/>
<text text-anchor="middle" x="71" y="-717.3" font-family="Helvetica,sans-Serif" font-size="14.00" fill="#ffffff">Initialize&#45;Bench.ps1</text>
</g>
<!-- Initialize&#45;Bench.ps1&#45;&gt;BenchDashboard.exe -->
<g id="edge12" class="edge"><title>Initialize&#45;Bench.ps1&#45;&gt;BenchDashboard.exe</title>
<path fill="none" stroke="#404040" d="M141.066,-731.246C149.833,-732.547 158.89,-733.89 167.882,-735.224"/>
<polygon fill="#404040" stroke="#404040" points="167.584,-738.718 177.99,-736.724 168.611,-731.794 167.584,-738.718"/>
</g>
<!-- Initialize&#45;Bench.ps1&#45;&gt;Load&#45;ClrLibs.ps1 -->
<g id="edge13" class="edge"><title>Initialize&#45;Bench.ps1&#45;&gt;Load&#45;ClrLibs.ps1</title>
<path fill="none" stroke="#404040" d="M123.593,-739.02C129.915,-741.774 136.189,-744.781 142,-748 159.496,-757.69 159.261,-768.012 178,-775 290.507,-816.956 327.425,-794 447.5,-794 447.5,-794 447.5,-794 616.5,-794 693.219,-794 779.272,-773.5 836.445,-756.875"/>
<polygon fill="#404040" stroke="#404040" points="837.471,-760.222 846.071,-754.034 835.489,-753.508 837.471,-760.222"/>
</g>
<!-- bench&#45;ctl.cmd -->
<g id="node29" class="node"><title>bench&#45;ctl.cmd</title>
<polygon fill="#267d41" stroke="#267d41" points="308,-712 202,-712 202,-676 308,-676 308,-712"/>
<text text-anchor="middle" x="255" y="-690.3" font-family="Helvetica,sans-Serif" font-size="14.00" fill="#ffffff">bench&#45;ctl.cmd</text>
</g>
<!-- Initialize&#45;Bench.ps1&#45;&gt;bench&#45;ctl.cmd -->
<g id="edge14" class="edge"><title>Initialize&#45;Bench.ps1&#45;&gt;bench&#45;ctl.cmd</title>
<path fill="none" stroke="#404040" d="M141.066,-704.181C157.804,-701.423 175.596,-698.829 191.986,-696.764"/>
<polygon fill="#404040" stroke="#404040" points="192.483,-700.229 201.988,-695.55 191.639,-693.28 192.483,-700.229"/>
</g>
<!-- Load&#45;ClrLibs.ps1&#45;&gt;BenchLib.dll -->
<g id="edge15" class="edge"><title>Load&#45;ClrLibs.ps1&#45;&gt;BenchLib.dll</title>
<path fill="none" stroke="#404040" d="M965.12,-736C973.603,-736 982.277,-736 990.66,-736"/>
<polygon fill="#404040" stroke="#404040" points="990.71,-739.5 1000.71,-736 990.71,-732.5 990.71,-739.5"/>
</g>
<!-- New&#45;Project.ps1 -->
<g id="node14" class="node"><title>New&#45;Project.ps1</title>
<polygon fill="#1ba1e2" stroke="#1ba1e2" points="509.5,-252 387.5,-252 387.5,-216 509.5,-216 509.5,-252"/>
<text text-anchor="middle" x="448.5" y="-230.3" font-family="Helvetica,sans-Serif" font-size="14.00" fill="#ffffff">New&#45;Project.ps1</text>
</g>
<!-- New&#45;Project.ps1&#45;&gt;bench.lib.ps1 -->
<g id="edge16" class="edge"><title>New&#45;Project.ps1&#45;&gt;bench.lib.ps1</title>
<path fill="none" stroke="#404040" d="M509.618,-250.796C516.392,-253.732 523.005,-257.117 529,-261 555.904,-278.424 580.102,-306.172 595.831,-326.643"/>
<polygon fill="#404040" stroke="#404040" points="593.237,-329.018 602.036,-334.919 598.838,-324.819 593.237,-329.018"/>
</g>
<!-- PsExecHost.ps1 -->
<g id="node16" class="node"><title>PsExecHost.ps1</title>
<polygon fill="#1ba1e2" stroke="#1ba1e2" points="510,-90 387,-90 387,-54 510,-54 510,-90"/>
<text text-anchor="middle" x="448.5" y="-68.3" font-family="Helvetica,sans-Serif" font-size="14.00" fill="#ffffff">PsExecHost.ps1</text>
</g>
<!-- PsExecHost.ps1&#45;&gt;bench.lib.ps1 -->
<g id="edge17" class="edge"><title>PsExecHost.ps1&#45;&gt;bench.lib.ps1</title>
<path fill="none" stroke="#404040" d="M510.296,-85.8864C517.189,-89.3325 523.648,-93.6331 529,-99 591.882,-162.052 608.529,-272.792 612.927,-324.676"/>
<polygon fill="#404040" stroke="#404040" points="609.449,-325.107 613.692,-334.815 616.43,-324.581 609.449,-325.107"/>
</g>
<!-- reg.lib.ps1 -->
<g id="node17" class="node"><title>reg.lib.ps1</title>
<polygon fill="#0072c6" stroke="#0072c6" points="657,-90 574,-90 574,-54 657,-54 657,-90"/>
<text text-anchor="middle" x="615.5" y="-68.3" font-family="Helvetica,sans-Serif" font-size="14.00" fill="#ffffff">reg.lib.ps1</text>
</g>
<!-- PsExecHost.ps1&#45;&gt;reg.lib.ps1 -->
<g id="edge18" class="edge"><title>PsExecHost.ps1&#45;&gt;reg.lib.ps1</title>
<path fill="none" stroke="#404040" d="M510.003,-72C527.597,-72 546.632,-72 563.574,-72"/>
<polygon fill="#404040" stroke="#404040" points="563.821,-75.5001 573.821,-72 563.821,-68.5001 563.821,-75.5001"/>
</g>
<!-- Run&#45;Adorned.ps1 -->
<g id="node18" class="node"><title>Run&#45;Adorned.ps1</title>
<polygon fill="#1ba1e2" stroke="#1ba1e2" points="513,-144 384,-144 384,-108 513,-108 513,-144"/>
<text text-anchor="middle" x="448.5" y="-122.3" font-family="Helvetica,sans-Serif" font-size="14.00" fill="#ffffff">Run&#45;Adorned.ps1</text>
</g>
<!-- Run&#45;Adorned.ps1&#45;&gt;bench.lib.ps1 -->
<g id="edge19" class="edge"><title>Run&#45;Adorned.ps1&#45;&gt;bench.lib.ps1</title>
<path fill="none" stroke="#404040" d="M513.081,-141.915C518.858,-144.984 524.295,-148.642 529,-153 579.697,-199.956 601.603,-281.974 609.975,-324.936"/>
<polygon fill="#404040" stroke="#404040" points="606.569,-325.77 611.821,-334.972 613.454,-324.504 606.569,-325.77"/>
</g>
<!-- Run&#45;Adorned.ps1&#45;&gt;reg.lib.ps1 -->
<g id="edge20" class="edge"><title>Run&#45;Adorned.ps1&#45;&gt;reg.lib.ps1</title>
<path fill="none" stroke="#404040" d="M504.902,-107.869C524.115,-101.58 545.535,-94.5704 564.305,-88.4275"/>
<polygon fill="#404040" stroke="#404040" points="565.438,-91.7394 573.853,-85.3026 563.261,-85.0866 565.438,-91.7394"/>
</g>
<!-- Run&#45;CustomScript.ps1 -->
<g id="node19" class="node"><title>Run&#45;CustomScript.ps1</title>
<polygon fill="#1ba1e2" stroke="#1ba1e2" points="529,-36 368,-36 368,-0 529,-0 529,-36"/>
<text text-anchor="middle" x="448.5" y="-14.3" font-family="Helvetica,sans-Serif" font-size="14.00" fill="#ffffff">Run&#45;CustomScript.ps1</text>
</g>
<!-- Run&#45;CustomScript.ps1&#45;&gt;bench.lib.ps1 -->
<g id="edge21" class="edge"><title>Run&#45;CustomScript.ps1&#45;&gt;bench.lib.ps1</title>
<path fill="none" stroke="#404040" d="M518.226,-36.0528C522.152,-38.6451 525.796,-41.6097 529,-45 567.801,-86.063 598.967,-256.639 610.098,-324.738"/>
<polygon fill="#404040" stroke="#404040" points="606.665,-325.436 611.71,-334.753 613.576,-324.323 606.665,-325.436"/>
</g>
<!-- Run&#45;CustomScript.ps1&#45;&gt;reg.lib.ps1 -->
<g id="edge22" class="edge"><title>Run&#45;CustomScript.ps1&#45;&gt;reg.lib.ps1</title>
<path fill="none" stroke="#404040" d="M504.902,-36.1314C524.115,-42.4195 545.535,-49.4296 564.305,-55.5725"/>
<polygon fill="#404040" stroke="#404040" points="563.261,-58.9134 573.853,-58.6974 565.438,-52.2606 563.261,-58.9134"/>
</g>
<!-- Select&#45;Project.ps1&#45;&gt;bench.lib.ps1 -->
<g id="edge23" class="edge"><title>Select&#45;Project.ps1&#45;&gt;bench.lib.ps1</title>
<path fill="none" stroke="#404040" d="M495.462,-399.894C515.308,-392.076 538.689,-382.865 559.451,-374.686"/>
<polygon fill="#404040" stroke="#404040" points="560.764,-377.931 568.785,-371.009 558.198,-371.418 560.764,-377.931"/>
</g>
<!-- Setup&#45;Bench.ps1 -->
<g id="node21" class="node"><title>Setup&#45;Bench.ps1</title>
<polygon fill="#1ba1e2" stroke="#1ba1e2" points="512,-566 385,-566 385,-530 512,-530 512,-566"/>
<text text-anchor="middle" x="448.5" y="-544.3" font-family="Helvetica,sans-Serif" font-size="14.00" fill="#ffffff">Setup&#45;Bench.ps1</text>
</g>
<!-- Setup&#45;Bench.ps1&#45;&gt;bench.lib.ps1 -->
<g id="edge24" class="edge"><title>Setup&#45;Bench.ps1&#45;&gt;bench.lib.ps1</title>
<path fill="none" stroke="#404040" d="M508.343,-529.947C515.8,-526.096 522.931,-521.489 529,-516 570.31,-478.643 595.002,-416.597 606.555,-380.797"/>
<polygon fill="#404040" stroke="#404040" points="609.971,-381.599 609.596,-371.011 603.286,-379.522 609.971,-381.599"/>
</g>
<!-- Shell&#45;Project.ps1 -->
<g id="node22" class="node"><title>Shell&#45;Project.ps1</title>
<polygon fill="#1ba1e2" stroke="#1ba1e2" points="317.5,-468 192.5,-468 192.5,-432 317.5,-432 317.5,-468"/>
<text text-anchor="middle" x="255" y="-446.3" font-family="Helvetica,sans-Serif" font-size="14.00" fill="#ffffff">Shell&#45;Project.ps1</text>
</g>
<!-- Shell&#45;Project.ps1&#45;&gt;bench.lib.ps1 -->
<g id="edge25" class="edge"><title>Shell&#45;Project.ps1&#45;&gt;bench.lib.ps1</title>
<path fill="none" stroke="#404040" d="M317.518,-462.115C374.876,-470.423 461.482,-475.164 529,-445 559.096,-431.554 583.462,-401.907 598.371,-379.882"/>
<polygon fill="#404040" stroke="#404040" points="601.454,-381.562 603.985,-371.274 595.59,-377.738 601.454,-381.562"/>
</g>
<!-- Shell&#45;Project.ps1&#45;&gt;Select&#45;Project.ps1 -->
<g id="edge26" class="edge"><title>Shell&#45;Project.ps1&#45;&gt;Select&#45;Project.ps1</title>
<path fill="none" stroke="#404040" d="M317.646,-439.699C334.646,-436.858 353.297,-433.742 371.027,-430.779"/>
<polygon fill="#404040" stroke="#404040" points="372.055,-434.156 381.341,-429.055 370.901,-427.251 372.055,-434.156"/>
</g>
<!-- Shell.ps1 -->
<g id="node23" class="node"><title>Shell.ps1</title>
<polygon fill="#1ba1e2" stroke="#1ba1e2" points="653.5,-620 577.5,-620 577.5,-584 653.5,-584 653.5,-620"/>
<text text-anchor="middle" x="615.5" y="-598.3" font-family="Helvetica,sans-Serif" font-size="14.00" fill="#ffffff">Shell.ps1</text>
</g>
<!-- Shell.ps1&#45;&gt;common.lib.ps1 -->
<g id="edge27" class="edge"><title>Shell.ps1&#45;&gt;common.lib.ps1</title>
<path fill="none" stroke="#404040" d="M653.521,-604.11C668.56,-604.869 686.104,-605.628 702,-606 746.877,-607.049 758.12,-606.916 803,-606 812.603,-605.804 822.732,-605.5 832.689,-605.146"/>
<polygon fill="#404040" stroke="#404040" points="833.111,-608.632 842.973,-604.76 832.849,-601.637 833.111,-608.632"/>
</g>
<!-- Shell.ps1&#45;&gt;config.lib.ps1 -->
<g id="edge28" class="edge"><title>Shell.ps1&#45;&gt;config.lib.ps1</title>
<path fill="none" stroke="#404040" d="M653.747,-595.654C665.625,-593.63 679.08,-591.338 692.124,-589.116"/>
<polygon fill="#404040" stroke="#404040" points="692.716,-592.566 701.986,-587.436 691.541,-585.665 692.716,-592.566"/>
</g>
<!-- Shell.ps1&#45;&gt;profile.ps1 -->
<g id="edge29" class="edge"><title>Shell.ps1&#45;&gt;profile.ps1</title>
<path fill="none" stroke="#404040" d="M632.516,-583.729C656.367,-556.522 701.331,-505.23 728.635,-474.083"/>
<polygon fill="#404040" stroke="#404040" points="731.544,-476.074 735.504,-466.247 726.281,-471.459 731.544,-476.074"/>
</g>
<!-- Start&#45;Editor.ps1 -->
<g id="node24" class="node"><title>Start&#45;Editor.ps1</title>
<polygon fill="#1ba1e2" stroke="#1ba1e2" points="506.5,-198 390.5,-198 390.5,-162 506.5,-162 506.5,-198"/>
<text text-anchor="middle" x="448.5" y="-176.3" font-family="Helvetica,sans-Serif" font-size="14.00" fill="#ffffff">Start&#45;Editor.ps1</text>
</g>
<!-- Start&#45;Editor.ps1&#45;&gt;bench.lib.ps1 -->
<g id="edge30" class="edge"><title>Start&#45;Editor.ps1&#45;&gt;bench.lib.ps1</title>
<path fill="none" stroke="#404040" d="M506.85,-193.88C514.785,-197.348 522.449,-201.656 529,-207 567.781,-238.632 592.813,-292.827 605.219,-325.542"/>
<polygon fill="#404040" stroke="#404040" points="601.941,-326.769 608.665,-334.957 608.514,-324.363 601.941,-326.769"/>
</g>
<!-- Upgrade&#45;Bench.ps1 -->
<g id="node25" class="node"><title>Upgrade&#45;Bench.ps1</title>
<polygon fill="#1ba1e2" stroke="#1ba1e2" points="520.5,-766 376.5,-766 376.5,-730 520.5,-730 520.5,-766"/>
<text text-anchor="middle" x="448.5" y="-744.3" font-family="Helvetica,sans-Serif" font-size="14.00" fill="#ffffff">Upgrade&#45;Bench.ps1</text>
</g>
<!-- Watch&#45;Project.ps1 -->
<g id="node26" class="node"><title>Watch&#45;Project.ps1</title>
<polygon fill="#1ba1e2" stroke="#1ba1e2" points="322,-414 188,-414 188,-378 322,-378 322,-414"/>
<text text-anchor="middle" x="255" y="-392.3" font-family="Helvetica,sans-Serif" font-size="14.00" fill="#ffffff">Watch&#45;Project.ps1</text>
</g>
<!-- Watch&#45;Project.ps1&#45;&gt;bench.lib.ps1 -->
<g id="edge31" class="edge"><title>Watch&#45;Project.ps1&#45;&gt;bench.lib.ps1</title>
<path fill="none" stroke="#404040" d="M322.172,-388.063C388.811,-380.07 490.692,-367.85 554.893,-360.15"/>
<polygon fill="#404040" stroke="#404040" points="555.35,-363.62 564.862,-358.954 554.516,-356.67 555.35,-363.62"/>
</g>
<!-- Watch&#45;Project.ps1&#45;&gt;Select&#45;Project.ps1 -->
<g id="edge32" class="edge"><title>Watch&#45;Project.ps1&#45;&gt;Select&#45;Project.ps1</title>
<path fill="none" stroke="#404040" d="M322.172,-403.602C338.018,-405.422 355.063,-407.381 371.322,-409.248"/>
<polygon fill="#404040" stroke="#404040" points="370.992,-412.733 381.326,-410.398 371.791,-405.779 370.992,-412.733"/>
</g>
<!-- bench&#45;bash.cmd -->
<g id="node27" class="node"><title>bench&#45;bash.cmd</title>
<polygon fill="#267d41" stroke="#267d41" points="132,-793 10,-793 10,-757 132,-757 132,-793"/>
<text text-anchor="middle" x="71" y="-771.3" font-family="Helvetica,sans-Serif" font-size="14.00" fill="#ffffff">bench&#45;bash.cmd</text>
</g>
<!-- bench&#45;cmd.cmd -->
<g id="node28" class="node"><title>bench&#45;cmd.cmd</title>
<polygon fill="#267d41" stroke="#267d41" points="130.5,-847 11.5,-847 11.5,-811 130.5,-811 130.5,-847"/>
<text text-anchor="middle" x="71" y="-825.3" font-family="Helvetica,sans-Serif" font-size="14.00" fill="#ffffff">bench&#45;cmd.cmd</text>
</g>
<!-- bench&#45;ctl.cmd&#45;&gt;init.cmd -->
<g id="edge33" class="edge"><title>bench&#45;ctl.cmd&#45;&gt;init.cmd</title>
<path fill="none" stroke="#404040" d="M308.075,-694C338.753,-694 377.043,-694 405.731,-694"/>
<polygon fill="#404040" stroke="#404040" points="405.834,-697.5 415.834,-694 405.834,-690.5 405.834,-697.5"/>
</g>
<!-- bench&#45;ctl.cmd&#45;&gt;Initialize&#45;Bench.ps1 -->
<g id="edge34" class="edge"><title>bench&#45;ctl.cmd&#45;&gt;Initialize&#45;Bench.ps1</title>
<path fill="none" stroke="#404040" d="M201.988,-707.882C186.137,-710.738 168.339,-713.556 151.119,-715.961"/>
<polygon fill="#404040" stroke="#404040" points="150.504,-712.512 141.066,-717.327 151.446,-719.449 150.504,-712.512"/>
</g>
<!-- bench&#45;ctl.cmd&#45;&gt;Setup&#45;Bench.ps1 -->
<g id="edge35" class="edge"><title>bench&#45;ctl.cmd&#45;&gt;Setup&#45;Bench.ps1</title>
<path fill="none" stroke="#404040" d="M268.71,-675.635C287.548,-649.705 325.287,-602.471 368,-575 370.471,-573.411 373.046,-571.904 375.693,-570.478"/>
<polygon fill="#404040" stroke="#404040" points="377.501,-573.489 384.924,-565.929 374.407,-567.21 377.501,-573.489"/>
</g>
<!-- bench&#45;ctl.cmd&#45;&gt;Shell.ps1 -->
<g id="edge36" class="edge"><title>bench&#45;ctl.cmd&#45;&gt;Shell.ps1</title>
<path fill="none" stroke="#404040" d="M308.126,-681.379C326.985,-676.828 348.447,-671.664 368,-667 439.515,-649.94 458.119,-648.528 529,-629 541.552,-625.542 555.029,-621.461 567.486,-617.534"/>
<polygon fill="#404040" stroke="#404040" points="568.756,-620.803 577.221,-614.432 566.631,-614.133 568.756,-620.803"/>
</g>
<!-- bench&#45;ctl.cmd&#45;&gt;Upgrade&#45;Bench.ps1 -->
<g id="edge37" class="edge"><title>bench&#45;ctl.cmd&#45;&gt;Upgrade&#45;Bench.ps1</title>
<path fill="none" stroke="#404040" d="M308.075,-708.684C328.245,-714.372 351.705,-720.987 373.564,-727.151"/>
<polygon fill="#404040" stroke="#404040" points="372.902,-730.601 383.476,-729.946 374.802,-723.864 372.902,-730.601"/>
</g>
<!-- bench&#45;ps.cmd -->
<g id="node30" class="node"><title>bench&#45;ps.cmd</title>
<polygon fill="#267d41" stroke="#267d41" points="502,-620 395,-620 395,-584 502,-584 502,-620"/>
<text text-anchor="middle" x="448.5" y="-598.3" font-family="Helvetica,sans-Serif" font-size="14.00" fill="#ffffff">bench&#45;ps.cmd</text>
</g>
<!-- bench&#45;ps.cmd&#45;&gt;Shell.ps1 -->
<g id="edge38" class="edge"><title>bench&#45;ps.cmd&#45;&gt;Shell.ps1</title>
<path fill="none" stroke="#404040" d="M502.161,-602C523.042,-602 546.871,-602 567.194,-602"/>
<polygon fill="#404040" stroke="#404040" points="567.468,-605.5 577.468,-602 567.468,-598.5 567.468,-605.5"/>
</g>
<!-- clone&#45;git&#45;project.cmd -->
<g id="node31" class="node"><title>clone&#45;git&#45;project.cmd</title>
<polygon fill="#267d41" stroke="#267d41" points="330,-306 180,-306 180,-270 330,-270 330,-306"/>
<text text-anchor="middle" x="255" y="-284.3" font-family="Helvetica,sans-Serif" font-size="14.00" fill="#ffffff">clone&#45;git&#45;project.cmd</text>
</g>
<!-- clone&#45;git&#45;project.cmd&#45;&gt;Clone&#45;GitProject.ps1 -->
<g id="edge39" class="edge"><title>clone&#45;git&#45;project.cmd&#45;&gt;Clone&#45;GitProject.ps1</title>
<path fill="none" stroke="#404040" d="M330.039,-288C341.079,-288 352.525,-288 363.748,-288"/>
<polygon fill="#404040" stroke="#404040" points="363.974,-291.5 373.973,-288 363.973,-284.5 363.974,-291.5"/>
</g>
<!-- new&#45;project.cmd -->
<g id="node32" class="node"><title>new&#45;project.cmd</title>
<polygon fill="#267d41" stroke="#267d41" points="316,-252 194,-252 194,-216 316,-216 316,-252"/>
<text text-anchor="middle" x="255" y="-230.3" font-family="Helvetica,sans-Serif" font-size="14.00" fill="#ffffff">new&#45;project.cmd</text>
</g>
<!-- new&#45;project.cmd&#45;&gt;New&#45;Project.ps1 -->
<g id="edge40" class="edge"><title>new&#45;project.cmd&#45;&gt;New&#45;Project.ps1</title>
<path fill="none" stroke="#404040" d="M316.066,-234C335.49,-234 357.2,-234 377.292,-234"/>
<polygon fill="#404040" stroke="#404040" points="377.318,-237.5 387.318,-234 377.318,-230.5 377.318,-237.5"/>
</g>
<!-- open&#45;editor.cmd -->
<g id="node33" class="node"><title>open&#45;editor.cmd</title>
<polygon fill="#267d41" stroke="#267d41" points="315.5,-198 194.5,-198 194.5,-162 315.5,-162 315.5,-198"/>
<text text-anchor="middle" x="255" y="-176.3" font-family="Helvetica,sans-Serif" font-size="14.00" fill="#ffffff">open&#45;editor.cmd</text>
</g>
<!-- open&#45;editor.cmd&#45;&gt;Start&#45;Editor.ps1 -->
<g id="edge41" class="edge"><title>open&#45;editor.cmd&#45;&gt;Start&#45;Editor.ps1</title>
<path fill="none" stroke="#404040" d="M315.542,-180C336.017,-180 359.083,-180 380.136,-180"/>
<polygon fill="#404040" stroke="#404040" points="380.289,-183.5 390.289,-180 380.289,-176.5 380.289,-183.5"/>
</g>
<!-- project&#45;backup.cmd -->
<g id="node34" class="node"><title>project&#45;backup.cmd</title>
<polygon fill="#267d41" stroke="#267d41" points="142,-360 0,-360 0,-324 142,-324 142,-360"/>
<text text-anchor="middle" x="71" y="-338.3" font-family="Helvetica,sans-Serif" font-size="14.00" fill="#ffffff">project&#45;backup.cmd</text>
</g>
<!-- project&#45;backup.cmd&#45;&gt;Archive&#45;Project.ps1 -->
<g id="edge42" class="edge"><title>project&#45;backup.cmd&#45;&gt;Archive&#45;Project.ps1</title>
<path fill="none" stroke="#404040" d="M142.106,-342C152.578,-342 163.44,-342 174.096,-342"/>
<polygon fill="#404040" stroke="#404040" points="174.231,-345.5 184.231,-342 174.231,-338.5 174.231,-345.5"/>
</g>
<!-- project&#45;editor.cmd -->
<g id="node35" class="node"><title>project&#45;editor.cmd</title>
<polygon fill="#267d41" stroke="#267d41" points="137,-576 5,-576 5,-540 137,-540 137,-576"/>
<text text-anchor="middle" x="71" y="-554.3" font-family="Helvetica,sans-Serif" font-size="14.00" fill="#ffffff">project&#45;editor.cmd</text>
</g>
<!-- project&#45;editor.cmd&#45;&gt;Edit&#45;Project.ps1 -->
<g id="edge43" class="edge"><title>project&#45;editor.cmd&#45;&gt;Edit&#45;Project.ps1</title>
<path fill="none" stroke="#404040" d="M132.856,-539.944C149.701,-534.946 168.099,-529.487 185.355,-524.367"/>
<polygon fill="#404040" stroke="#404040" points="186.77,-527.598 195.362,-521.398 184.779,-520.887 186.77,-527.598"/>
</g>
<!-- project&#45;ps.cmd -->
<g id="node36" class="node"><title>project&#45;ps.cmd</title>
<polygon fill="#267d41" stroke="#267d41" points="127,-468 15,-468 15,-432 127,-432 127,-468"/>
<text text-anchor="middle" x="71" y="-446.3" font-family="Helvetica,sans-Serif" font-size="14.00" fill="#ffffff">project&#45;ps.cmd</text>
</g>
<!-- project&#45;ps.cmd&#45;&gt;Shell&#45;Project.ps1 -->
<g id="edge44" class="edge"><title>project&#45;ps.cmd&#45;&gt;Shell&#45;Project.ps1</title>
<path fill="none" stroke="#404040" d="M127.1,-450C144.49,-450 163.964,-450 182.335,-450"/>
<polygon fill="#404040" stroke="#404040" points="182.408,-453.5 192.408,-450 182.408,-446.5 182.408,-453.5"/>
</g>
<!-- project&#45;watch.cmd -->
<g id="node37" class="node"><title>project&#45;watch.cmd</title>
<polygon fill="#267d41" stroke="#267d41" points="137,-414 5,-414 5,-378 137,-378 137,-414"/>
<text text-anchor="middle" x="71" y="-392.3" font-family="Helvetica,sans-Serif" font-size="14.00" fill="#ffffff">project&#45;watch.cmd</text>
</g>
<!-- project&#45;watch.cmd&#45;&gt;Watch&#45;Project.ps1 -->
<g id="edge45" class="edge"><title>project&#45;watch.cmd&#45;&gt;Watch&#45;Project.ps1</title>
<path fill="none" stroke="#404040" d="M137.192,-396C150.278,-396 164.14,-396 177.568,-396"/>
<polygon fill="#404040" stroke="#404040" points="177.732,-399.5 187.732,-396 177.732,-392.5 177.732,-399.5"/>
</g>
</g>
</svg>
