<?xml version="1.0" encoding="UTF-8" standalone="no"?>
<!DOCTYPE svg PUBLIC "-//W3C//DTD SVG 1.1//EN"
 "http://www.w3.org/Graphics/SVG/1.1/DTD/svg11.dtd">
<!-- Generated by graphviz version 2.38.0 (20140413.2041)
 -->
<!-- Title: Dependencies Pages: 1 -->
<svg width="784pt" height="368pt"
 viewBox="0.00 0.00 784.00 368.00" xmlns="http://www.w3.org/2000/svg" xmlns:xlink="http://www.w3.org/1999/xlink">
<g id="graph0" class="graph" transform="scale(1 1) rotate(0) translate(4 364)">
<title>Dependencies</title>
<polygon fill="white" stroke="none" points="-4,4 -4,-364 780,-364 780,4 -4,4"/>
<!-- BenchDashboard.exe -->
<g id="node1" class="node"><title>BenchDashboard.exe</title>
<polygon fill="#86ae1e" stroke="#86ae1e" points="181.5,-36 27.5,-36 27.5,-0 181.5,-0 181.5,-36"/>
<text text-anchor="middle" x="104.5" y="-14.3" font-family="Helvetica,sans-Serif" font-size="14.00" fill="#ffffff">BenchDashboard.exe</text>
</g>
<!-- BenchLib.dll -->
<g id="node2" class="node"><title>BenchLib.dll</title>
<polygon fill="#86ae1e" stroke="#86ae1e" points="776,-225 681,-225 681,-189 776,-189 776,-225"/>
<text text-anchor="middle" x="728.5" y="-203.3" font-family="Helvetica,sans-Serif" font-size="14.00" fill="#ffffff">BenchLib.dll</text>
</g>
<!-- bench&#45;manage&#45;autosetup.cmd -->
<g id="node3" class="node"><title>bench&#45;manage&#45;autosetup.cmd</title>
<polygon fill="#339999" stroke="#339999" points="209,-252 0,-252 0,-216 209,-216 209,-252"/>
<text text-anchor="middle" x="104.5" y="-230.3" font-family="Helvetica,sans-Serif" font-size="14.00" fill="#ffffff">bench&#45;manage&#45;autosetup.cmd</text>
</g>
<!-- bench&#45;manage&#45;initialize.cmd -->
<g id="node4" class="node"><title>bench&#45;manage&#45;initialize.cmd</title>
<polygon fill="#339999" stroke="#339999" points="202.5,-306 6.5,-306 6.5,-270 202.5,-270 202.5,-306"/>
<text text-anchor="middle" x="104.5" y="-284.3" font-family="Helvetica,sans-Serif" font-size="14.00" fill="#ffffff">bench&#45;manage&#45;initialize.cmd</text>
</g>
<!-- env.cmd -->
<g id="node5" class="node"><title>env.cmd</title>
<polygon fill="#339999" stroke="#339999" points="140,-360 69,-360 69,-324 140,-324 140,-360"/>
<text text-anchor="middle" x="104.5" y="-338.3" font-family="Helvetica,sans-Serif" font-size="14.00" fill="#ffffff">env.cmd</text>
</g>
<!-- bench.lib.ps1 -->
<g id="node6" class="node"><title>bench.lib.ps1</title>
<polygon fill="#0072c6" stroke="#0072c6" points="346,-171 245,-171 245,-135 346,-135 346,-171"/>
<text text-anchor="middle" x="295.5" y="-149.3" font-family="Helvetica,sans-Serif" font-size="14.00" fill="#ffffff">bench.lib.ps1</text>
</g>
<!-- config.lib.ps1 -->
<g id="node8" class="node"><title>config.lib.ps1</title>
<polygon fill="#0072c6" stroke="#0072c6" points="483,-198 382,-198 382,-162 483,-162 483,-198"/>
<text text-anchor="middle" x="432.5" y="-176.3" font-family="Helvetica,sans-Serif" font-size="14.00" fill="#ffffff">config.lib.ps1</text>
</g>
<!-- bench.lib.ps1&#45;&gt;config.lib.ps1 -->
<g id="edge1" class="edge"><title>bench.lib.ps1&#45;&gt;config.lib.ps1</title>
<path fill="none" stroke="#404040" d="M346.002,-162.9C354.332,-164.566 363.056,-166.311 371.614,-168.023"/>
<polygon fill="#404040" stroke="#404040" points="371.059,-171.481 381.552,-170.01 372.432,-164.617 371.059,-171.481"/>
</g>
<!-- profile.ps1 -->
<g id="node10" class="node"><title>profile.ps1</title>
<polygon fill="#1ba1e2" stroke="#1ba1e2" points="474.5,-144 390.5,-144 390.5,-108 474.5,-108 474.5,-144"/>
<text text-anchor="middle" x="432.5" y="-122.3" font-family="Helvetica,sans-Serif" font-size="14.00" fill="#ffffff">profile.ps1</text>
</g>
<!-- bench.lib.ps1&#45;&gt;profile.ps1 -->
<g id="edge2" class="edge"><title>bench.lib.ps1&#45;&gt;profile.ps1</title>
<path fill="none" stroke="#404040" d="M346.002,-143.1C357.18,-140.864 369.067,-138.487 380.312,-136.238"/>
<polygon fill="#404040" stroke="#404040" points="381.301,-139.609 390.42,-134.216 379.928,-132.745 381.301,-139.609"/>
</g>
<!-- common.lib.ps1 -->
<g id="node7" class="node"><title>common.lib.ps1</title>
<polygon fill="#0072c6" stroke="#0072c6" points="641,-171 523,-171 523,-135 641,-135 641,-171"/>
<text text-anchor="middle" x="582" y="-149.3" font-family="Helvetica,sans-Serif" font-size="14.00" fill="#ffffff">common.lib.ps1</text>
</g>
<!-- config.lib.ps1&#45;&gt;common.lib.ps1 -->
<g id="edge3" class="edge"><title>config.lib.ps1&#45;&gt;common.lib.ps1</title>
<path fill="none" stroke="#404040" d="M483.026,-170.934C492.629,-169.176 502.85,-167.306 512.927,-165.461"/>
<polygon fill="#404040" stroke="#404040" points="513.724,-168.873 522.93,-163.63 512.463,-161.988 513.724,-168.873"/>
</g>
<!-- Load&#45;ClrLibs.ps1 -->
<g id="node9" class="node"><title>Load&#45;ClrLibs.ps1</title>
<polygon fill="#1ba1e2" stroke="#1ba1e2" points="645,-225 519,-225 519,-189 645,-189 645,-225"/>
<text text-anchor="middle" x="582" y="-203.3" font-family="Helvetica,sans-Serif" font-size="14.00" fill="#ffffff">Load&#45;ClrLibs.ps1</text>
</g>
<!-- config.lib.ps1&#45;&gt;Load&#45;ClrLibs.ps1 -->
<g id="edge4" class="edge"><title>config.lib.ps1&#45;&gt;Load&#45;ClrLibs.ps1</title>
<path fill="none" stroke="#404040" d="M483.026,-189.066C491.356,-190.591 500.151,-192.2 508.914,-193.805"/>
<polygon fill="#404040" stroke="#404040" points="508.301,-197.251 518.768,-195.608 509.562,-190.365 508.301,-197.251"/>
</g>
<!-- Load&#45;ClrLibs.ps1&#45;&gt;BenchLib.dll -->
<g id="edge5" class="edge"><title>Load&#45;ClrLibs.ps1&#45;&gt;BenchLib.dll</title>
<path fill="none" stroke="#404040" d="M645.12,-207C653.603,-207 662.277,-207 670.66,-207"/>
<polygon fill="#404040" stroke="#404040" points="670.71,-210.5 680.71,-207 670.71,-203.5 670.71,-210.5"/>
</g>
<!-- PsExecHost.ps1 -->
<g id="node11" class="node"><title>PsExecHost.ps1</title>
<polygon fill="#1ba1e2" stroke="#1ba1e2" points="166,-198 43,-198 43,-162 166,-162 166,-198"/>
<text text-anchor="middle" x="104.5" y="-176.3" font-family="Helvetica,sans-Serif" font-size="14.00" fill="#ffffff">PsExecHost.ps1</text>
</g>
<!-- PsExecHost.ps1&#45;&gt;bench.lib.ps1 -->
<g id="edge6" class="edge"><title>PsExecHost.ps1&#45;&gt;bench.lib.ps1</title>
<path fill="none" stroke="#404040" d="M166.081,-171.346C188.078,-168.203 212.903,-164.657 234.822,-161.525"/>
<polygon fill="#404040" stroke="#404040" points="235.59,-164.951 244.995,-160.072 234.6,-158.022 235.59,-164.951"/>
</g>
<!-- reg.lib.ps1 -->
<g id="node12" class="node"><title>reg.lib.ps1</title>
<polygon fill="#0072c6" stroke="#0072c6" points="337,-117 254,-117 254,-81 337,-81 337,-117"/>
<text text-anchor="middle" x="295.5" y="-95.3" font-family="Helvetica,sans-Serif" font-size="14.00" fill="#ffffff">reg.lib.ps1</text>
</g>
<!-- PsExecHost.ps1&#45;&gt;reg.lib.ps1 -->
<g id="edge7" class="edge"><title>PsExecHost.ps1&#45;&gt;reg.lib.ps1</title>
<path fill="none" stroke="#404040" d="M166.021,-168.412C180.493,-164.51 195.619,-159.453 209,-153 227.015,-144.313 228.177,-136.817 245,-126 246.907,-124.774 248.873,-123.549 250.874,-122.335"/>
<polygon fill="#404040" stroke="#404040" points="252.924,-125.19 259.777,-117.11 249.381,-119.152 252.924,-125.19"/>
</g>
<!-- Run&#45;Adorned.ps1 -->
<g id="node13" class="node"><title>Run&#45;Adorned.ps1</title>
<polygon fill="#1ba1e2" stroke="#1ba1e2" points="169,-144 40,-144 40,-108 169,-108 169,-144"/>
<text text-anchor="middle" x="104.5" y="-122.3" font-family="Helvetica,sans-Serif" font-size="14.00" fill="#ffffff">Run&#45;Adorned.ps1</text>
</g>
<!-- Run&#45;Adorned.ps1&#45;&gt;bench.lib.ps1 -->
<g id="edge8" class="edge"><title>Run&#45;Adorned.ps1&#45;&gt;bench.lib.ps1</title>
<path fill="none" stroke="#404040" d="M169.223,-135.103C190.405,-138.129 213.903,-141.486 234.772,-144.467"/>
<polygon fill="#404040" stroke="#404040" points="234.389,-147.948 244.784,-145.898 235.379,-141.019 234.389,-147.948"/>
</g>
<!-- Run&#45;Adorned.ps1&#45;&gt;reg.lib.ps1 -->
<g id="edge9" class="edge"><title>Run&#45;Adorned.ps1&#45;&gt;reg.lib.ps1</title>
<path fill="none" stroke="#404040" d="M169.223,-116.897C193.479,-113.432 220.771,-109.533 243.675,-106.261"/>
<polygon fill="#404040" stroke="#404040" points="244.458,-109.684 253.863,-104.805 243.468,-102.755 244.458,-109.684"/>
</g>
<!-- Run&#45;CustomScript.ps1 -->
<g id="node14" class="node"><title>Run&#45;CustomScript.ps1</title>
<polygon fill="#1ba1e2" stroke="#1ba1e2" points="185,-90 24,-90 24,-54 185,-54 185,-90"/>
<text text-anchor="middle" x="104.5" y="-68.3" font-family="Helvetica,sans-Serif" font-size="14.00" fill="#ffffff">Run&#45;CustomScript.ps1</text>
</g>
<!-- Run&#45;CustomScript.ps1&#45;&gt;bench.lib.ps1 -->
<g id="edge10" class="edge"><title>Run&#45;CustomScript.ps1&#45;&gt;bench.lib.ps1</title>
<path fill="none" stroke="#404040" d="M185.19,-89.3928C193.394,-92.1821 201.473,-95.3701 209,-99 227.015,-107.687 228.177,-115.183 245,-126 246.907,-127.226 248.873,-128.451 250.874,-129.665"/>
<polygon fill="#404040" stroke="#404040" points="249.381,-132.848 259.777,-134.89 252.924,-126.81 249.381,-132.848"/>
</g>
<!-- Run&#45;CustomScript.ps1&#45;&gt;reg.lib.ps1 -->
<g id="edge11" class="edge"><title>Run&#45;CustomScript.ps1&#45;&gt;reg.lib.ps1</title>
<path fill="none" stroke="#404040" d="M185.105,-83.3722C205.016,-86.2166 225.832,-89.1902 243.896,-91.7708"/>
<polygon fill="#404040" stroke="#404040" points="243.51,-95.2512 253.905,-93.2007 244.5,-88.3216 243.51,-95.2512"/>
</g>
</g>
</svg>
