<?xml version="1.0" encoding="UTF-8" standalone="no"?>
<!DOCTYPE svg PUBLIC "-//W3C//DTD SVG 1.1//EN"
 "http://www.w3.org/Graphics/SVG/1.1/DTD/svg11.dtd">
<!-- Generated by graphviz version 2.38.0 (20140413.2041)
 -->
<!-- Title: Dependencies Pages: 1 -->
<svg width="737pt" height="422pt"
 viewBox="0.00 0.00 737.00 422.00" xmlns="http://www.w3.org/2000/svg" xmlns:xlink="http://www.w3.org/1999/xlink">
<g id="graph0" class="graph" transform="scale(1 1) rotate(0) translate(4 418)">
<title>Dependencies</title>
<polygon fill="white" stroke="none" points="-4,4 -4,-418 733,-418 733,4 -4,4"/>
<!-- BenchDashboard.exe -->
<g id="node1" class="node"><title>BenchDashboard.exe</title>
<polygon fill="#86ae1e" stroke="#86ae1e" points="158,-36 4,-36 4,-0 158,-0 158,-36"/>
<text text-anchor="middle" x="81" y="-14.3" font-family="Helvetica,sans-Serif" font-size="14.00" fill="#ffffff">BenchDashboard.exe</text>
</g>
<!-- BenchLib.dll -->
<g id="node2" class="node"><title>BenchLib.dll</title>
<polygon fill="#86ae1e" stroke="#86ae1e" points="729,-225 634,-225 634,-189 729,-189 729,-225"/>
<text text-anchor="middle" x="681.5" y="-203.3" font-family="Helvetica,sans-Serif" font-size="14.00" fill="#ffffff">BenchLib.dll</text>
</g>
<!-- bench&#45;initialize.cmd -->
<g id="node3" class="node"><title>bench&#45;initialize.cmd</title>
<polygon fill="#339999" stroke="#339999" points="151,-252 11,-252 11,-216 151,-216 151,-252"/>
<text text-anchor="middle" x="81" y="-230.3" font-family="Helvetica,sans-Serif" font-size="14.00" fill="#ffffff">bench&#45;initialize.cmd</text>
</g>
<!-- bench&#45;setup.cmd -->
<g id="node4" class="node"><title>bench&#45;setup.cmd</title>
<polygon fill="#339999" stroke="#339999" points="144.5,-306 17.5,-306 17.5,-270 144.5,-270 144.5,-306"/>
<text text-anchor="middle" x="81" y="-284.3" font-family="Helvetica,sans-Serif" font-size="14.00" fill="#ffffff">bench&#45;setup.cmd</text>
</g>
<!-- bench&#45;update&#45;env.cmd -->
<g id="node5" class="node"><title>bench&#45;update&#45;env.cmd</title>
<polygon fill="#339999" stroke="#339999" points="162,-360 0,-360 0,-324 162,-324 162,-360"/>
<text text-anchor="middle" x="81" y="-338.3" font-family="Helvetica,sans-Serif" font-size="14.00" fill="#ffffff">bench&#45;update&#45;env.cmd</text>
</g>
<!-- env.cmd -->
<g id="node6" class="node"><title>env.cmd</title>
<polygon fill="#339999" stroke="#339999" points="116.5,-414 45.5,-414 45.5,-378 116.5,-378 116.5,-414"/>
<text text-anchor="middle" x="81" y="-392.3" font-family="Helvetica,sans-Serif" font-size="14.00" fill="#ffffff">env.cmd</text>
</g>
<!-- bench.lib.ps1 -->
<g id="node7" class="node"><title>bench.lib.ps1</title>
<polygon fill="#0072c6" stroke="#0072c6" points="299,-171 198,-171 198,-135 299,-135 299,-171"/>
<text text-anchor="middle" x="248.5" y="-149.3" font-family="Helvetica,sans-Serif" font-size="14.00" fill="#ffffff">bench.lib.ps1</text>
</g>
<!-- config.lib.ps1 -->
<g id="node9" class="node"><title>config.lib.ps1</title>
<polygon fill="#0072c6" stroke="#0072c6" points="436,-198 335,-198 335,-162 436,-162 436,-198"/>
<text text-anchor="middle" x="385.5" y="-176.3" font-family="Helvetica,sans-Serif" font-size="14.00" fill="#ffffff">config.lib.ps1</text>
</g>
<!-- bench.lib.ps1&#45;&gt;config.lib.ps1 -->
<g id="edge1" class="edge"><title>bench.lib.ps1&#45;&gt;config.lib.ps1</title>
<path fill="none" stroke="#404040" d="M299.002,-162.9C307.332,-164.566 316.056,-166.311 324.614,-168.023"/>
<polygon fill="#404040" stroke="#404040" points="324.059,-171.481 334.552,-170.01 325.432,-164.617 324.059,-171.481"/>
</g>
<!-- profile.ps1 -->
<g id="node11" class="node"><title>profile.ps1</title>
<polygon fill="#1ba1e2" stroke="#1ba1e2" points="427.5,-144 343.5,-144 343.5,-108 427.5,-108 427.5,-144"/>
<text text-anchor="middle" x="385.5" y="-122.3" font-family="Helvetica,sans-Serif" font-size="14.00" fill="#ffffff">profile.ps1</text>
</g>
<!-- bench.lib.ps1&#45;&gt;profile.ps1 -->
<g id="edge2" class="edge"><title>bench.lib.ps1&#45;&gt;profile.ps1</title>
<path fill="none" stroke="#404040" d="M299.002,-143.1C310.18,-140.864 322.067,-138.487 333.312,-136.238"/>
<polygon fill="#404040" stroke="#404040" points="334.301,-139.609 343.42,-134.216 332.928,-132.745 334.301,-139.609"/>
</g>
<!-- common.lib.ps1 -->
<g id="node8" class="node"><title>common.lib.ps1</title>
<polygon fill="#0072c6" stroke="#0072c6" points="594,-171 476,-171 476,-135 594,-135 594,-171"/>
<text text-anchor="middle" x="535" y="-149.3" font-family="Helvetica,sans-Serif" font-size="14.00" fill="#ffffff">common.lib.ps1</text>
</g>
<!-- config.lib.ps1&#45;&gt;common.lib.ps1 -->
<g id="edge3" class="edge"><title>config.lib.ps1&#45;&gt;common.lib.ps1</title>
<path fill="none" stroke="#404040" d="M436.026,-170.934C445.629,-169.176 455.85,-167.306 465.927,-165.461"/>
<polygon fill="#404040" stroke="#404040" points="466.724,-168.873 475.93,-163.63 465.463,-161.988 466.724,-168.873"/>
</g>
<!-- Load&#45;ClrLibs.ps1 -->
<g id="node10" class="node"><title>Load&#45;ClrLibs.ps1</title>
<polygon fill="#1ba1e2" stroke="#1ba1e2" points="598,-225 472,-225 472,-189 598,-189 598,-225"/>
<text text-anchor="middle" x="535" y="-203.3" font-family="Helvetica,sans-Serif" font-size="14.00" fill="#ffffff">Load&#45;ClrLibs.ps1</text>
</g>
<!-- config.lib.ps1&#45;&gt;Load&#45;ClrLibs.ps1 -->
<g id="edge4" class="edge"><title>config.lib.ps1&#45;&gt;Load&#45;ClrLibs.ps1</title>
<path fill="none" stroke="#404040" d="M436.026,-189.066C444.356,-190.591 453.151,-192.2 461.914,-193.805"/>
<polygon fill="#404040" stroke="#404040" points="461.301,-197.251 471.768,-195.608 462.562,-190.365 461.301,-197.251"/>
</g>
<!-- Load&#45;ClrLibs.ps1&#45;&gt;BenchLib.dll -->
<g id="edge5" class="edge"><title>Load&#45;ClrLibs.ps1&#45;&gt;BenchLib.dll</title>
<path fill="none" stroke="#404040" d="M598.12,-207C606.603,-207 615.277,-207 623.66,-207"/>
<polygon fill="#404040" stroke="#404040" points="623.71,-210.5 633.71,-207 623.71,-203.5 623.71,-210.5"/>
</g>
<!-- PsExecHost.ps1 -->
<g id="node12" class="node"><title>PsExecHost.ps1</title>
<polygon fill="#1ba1e2" stroke="#1ba1e2" points="142.5,-198 19.5,-198 19.5,-162 142.5,-162 142.5,-198"/>
<text text-anchor="middle" x="81" y="-176.3" font-family="Helvetica,sans-Serif" font-size="14.00" fill="#ffffff">PsExecHost.ps1</text>
</g>
<!-- PsExecHost.ps1&#45;&gt;bench.lib.ps1 -->
<g id="edge6" class="edge"><title>PsExecHost.ps1&#45;&gt;bench.lib.ps1</title>
<path fill="none" stroke="#404040" d="M142.686,-170.1C157.453,-167.691 173.23,-165.117 187.943,-162.716"/>
<polygon fill="#404040" stroke="#404040" points="188.628,-166.151 197.934,-161.086 187.501,-159.242 188.628,-166.151"/>
</g>
<!-- reg.lib.ps1 -->
<g id="node13" class="node"><title>reg.lib.ps1</title>
<polygon fill="#0072c6" stroke="#0072c6" points="290,-117 207,-117 207,-81 290,-81 290,-117"/>
<text text-anchor="middle" x="248.5" y="-95.3" font-family="Helvetica,sans-Serif" font-size="14.00" fill="#ffffff">reg.lib.ps1</text>
</g>
<!-- PsExecHost.ps1&#45;&gt;reg.lib.ps1 -->
<g id="edge7" class="edge"><title>PsExecHost.ps1&#45;&gt;reg.lib.ps1</title>
<path fill="none" stroke="#404040" d="M142.286,-161.982C149.07,-159.275 155.774,-156.277 162,-153 179.698,-143.685 181.177,-136.817 198,-126 199.907,-124.774 201.873,-123.549 203.874,-122.335"/>
<polygon fill="#404040" stroke="#404040" points="205.924,-125.19 212.777,-117.11 202.381,-119.152 205.924,-125.19"/>
</g>
<!-- Run&#45;Adorned.ps1 -->
<g id="node14" class="node"><title>Run&#45;Adorned.ps1</title>
<polygon fill="#1ba1e2" stroke="#1ba1e2" points="145.5,-144 16.5,-144 16.5,-108 145.5,-108 145.5,-144"/>
<text text-anchor="middle" x="81" y="-122.3" font-family="Helvetica,sans-Serif" font-size="14.00" fill="#ffffff">Run&#45;Adorned.ps1</text>
</g>
<!-- Run&#45;Adorned.ps1&#45;&gt;bench.lib.ps1 -->
<g id="edge8" class="edge"><title>Run&#45;Adorned.ps1&#45;&gt;bench.lib.ps1</title>
<path fill="none" stroke="#404040" d="M145.513,-136.362C159.315,-138.613 173.872,-140.988 187.532,-143.217"/>
<polygon fill="#404040" stroke="#404040" points="187.341,-146.732 197.774,-144.888 188.468,-139.823 187.341,-146.732"/>
</g>
<!-- Run&#45;Adorned.ps1&#45;&gt;reg.lib.ps1 -->
<g id="edge9" class="edge"><title>Run&#45;Adorned.ps1&#45;&gt;reg.lib.ps1</title>
<path fill="none" stroke="#404040" d="M145.513,-115.638C162.413,-112.881 180.445,-109.939 196.575,-107.308"/>
<polygon fill="#404040" stroke="#404040" points="197.563,-110.693 206.868,-105.629 196.435,-103.785 197.563,-110.693"/>
</g>
<!-- Run&#45;CustomScript.ps1 -->
<g id="node15" class="node"><title>Run&#45;CustomScript.ps1</title>
<polygon fill="#1ba1e2" stroke="#1ba1e2" points="161.5,-90 0.5,-90 0.5,-54 161.5,-54 161.5,-90"/>
<text text-anchor="middle" x="81" y="-68.3" font-family="Helvetica,sans-Serif" font-size="14.00" fill="#ffffff">Run&#45;CustomScript.ps1</text>
</g>
<!-- Run&#45;CustomScript.ps1&#45;&gt;bench.lib.ps1 -->
<g id="edge10" class="edge"><title>Run&#45;CustomScript.ps1&#45;&gt;bench.lib.ps1</title>
<path fill="none" stroke="#404040" d="M142.286,-90.018C149.07,-92.7254 155.774,-95.7228 162,-99 179.698,-108.315 181.177,-115.183 198,-126 199.907,-127.226 201.873,-128.451 203.874,-129.665"/>
<polygon fill="#404040" stroke="#404040" points="202.381,-132.848 212.777,-134.89 205.924,-126.81 202.381,-132.848"/>
</g>
<!-- Run&#45;CustomScript.ps1&#45;&gt;reg.lib.ps1 -->
<g id="edge11" class="edge"><title>Run&#45;CustomScript.ps1&#45;&gt;reg.lib.ps1</title>
<path fill="none" stroke="#404040" d="M161.841,-85.0255C173.739,-86.9665 185.717,-88.9206 196.79,-90.7271"/>
<polygon fill="#404040" stroke="#404040" points="196.243,-94.184 206.676,-92.3399 197.37,-87.2754 196.243,-94.184"/>
</g>
</g>
</svg>
