<?xml version="1.0" encoding="UTF-8" standalone="no"?>
<!DOCTYPE svg PUBLIC "-//W3C//DTD SVG 1.1//EN"
 "http://www.w3.org/Graphics/SVG/1.1/DTD/svg11.dtd">
<!-- Generated by graphviz version 2.38.0 (20140413.2041)
 -->
<!-- Title: Dependencies Pages: 1 -->
<svg width="736pt" height="260pt"
 viewBox="0.00 0.00 736.00 260.00" xmlns="http://www.w3.org/2000/svg" xmlns:xlink="http://www.w3.org/1999/xlink">
<g id="graph0" class="graph" transform="scale(1 1) rotate(0) translate(4 256)">
<title>Dependencies</title>
<polygon fill="white" stroke="none" points="-4,4 -4,-256 732,-256 732,4 -4,4"/>
<!-- BenchDashboard.exe -->
<g id="node1" class="node"><title>BenchDashboard.exe</title>
<polygon fill="#86ae1e" stroke="#86ae1e" points="157.5,-36 3.5,-36 3.5,-0 157.5,-0 157.5,-36"/>
<text text-anchor="middle" x="80.5" y="-14.3" font-family="Helvetica,sans-Serif" font-size="14.00" fill="#ffffff">BenchDashboard.exe</text>
</g>
<!-- BenchLib.dll -->
<g id="node2" class="node"><title>BenchLib.dll</title>
<polygon fill="#86ae1e" stroke="#86ae1e" points="728,-225 633,-225 633,-189 728,-189 728,-225"/>
<text text-anchor="middle" x="680.5" y="-203.3" font-family="Helvetica,sans-Serif" font-size="14.00" fill="#ffffff">BenchLib.dll</text>
</g>
<!-- env.cmd -->
<g id="node3" class="node"><title>env.cmd</title>
<polygon fill="#339999" stroke="#339999" points="116,-252 45,-252 45,-216 116,-216 116,-252"/>
<text text-anchor="middle" x="80.5" y="-230.3" font-family="Helvetica,sans-Serif" font-size="14.00" fill="#ffffff">env.cmd</text>
</g>
<!-- bench.lib.ps1 -->
<g id="node4" class="node"><title>bench.lib.ps1</title>
<polygon fill="#0072c6" stroke="#0072c6" points="298,-171 197,-171 197,-135 298,-135 298,-171"/>
<text text-anchor="middle" x="247.5" y="-149.3" font-family="Helvetica,sans-Serif" font-size="14.00" fill="#ffffff">bench.lib.ps1</text>
</g>
<!-- config.lib.ps1 -->
<g id="node6" class="node"><title>config.lib.ps1</title>
<polygon fill="#0072c6" stroke="#0072c6" points="435,-198 334,-198 334,-162 435,-162 435,-198"/>
<text text-anchor="middle" x="384.5" y="-176.3" font-family="Helvetica,sans-Serif" font-size="14.00" fill="#ffffff">config.lib.ps1</text>
</g>
<!-- bench.lib.ps1&#45;&gt;config.lib.ps1 -->
<g id="edge1" class="edge"><title>bench.lib.ps1&#45;&gt;config.lib.ps1</title>
<path fill="none" stroke="#404040" d="M298.002,-162.9C306.332,-164.566 315.056,-166.311 323.614,-168.023"/>
<polygon fill="#404040" stroke="#404040" points="323.059,-171.481 333.552,-170.01 324.432,-164.617 323.059,-171.481"/>
</g>
<!-- profile.ps1 -->
<g id="node8" class="node"><title>profile.ps1</title>
<polygon fill="#1ba1e2" stroke="#1ba1e2" points="426.5,-144 342.5,-144 342.5,-108 426.5,-108 426.5,-144"/>
<text text-anchor="middle" x="384.5" y="-122.3" font-family="Helvetica,sans-Serif" font-size="14.00" fill="#ffffff">profile.ps1</text>
</g>
<!-- bench.lib.ps1&#45;&gt;profile.ps1 -->
<g id="edge2" class="edge"><title>bench.lib.ps1&#45;&gt;profile.ps1</title>
<path fill="none" stroke="#404040" d="M298.002,-143.1C309.18,-140.864 321.067,-138.487 332.312,-136.238"/>
<polygon fill="#404040" stroke="#404040" points="333.301,-139.609 342.42,-134.216 331.928,-132.745 333.301,-139.609"/>
</g>
<!-- common.lib.ps1 -->
<g id="node5" class="node"><title>common.lib.ps1</title>
<polygon fill="#0072c6" stroke="#0072c6" points="593,-171 475,-171 475,-135 593,-135 593,-171"/>
<text text-anchor="middle" x="534" y="-149.3" font-family="Helvetica,sans-Serif" font-size="14.00" fill="#ffffff">common.lib.ps1</text>
</g>
<!-- config.lib.ps1&#45;&gt;common.lib.ps1 -->
<g id="edge3" class="edge"><title>config.lib.ps1&#45;&gt;common.lib.ps1</title>
<path fill="none" stroke="#404040" d="M435.026,-170.934C444.629,-169.176 454.85,-167.306 464.927,-165.461"/>
<polygon fill="#404040" stroke="#404040" points="465.724,-168.873 474.93,-163.63 464.463,-161.988 465.724,-168.873"/>
</g>
<!-- Load&#45;ClrLibs.ps1 -->
<g id="node7" class="node"><title>Load&#45;ClrLibs.ps1</title>
<polygon fill="#1ba1e2" stroke="#1ba1e2" points="597,-225 471,-225 471,-189 597,-189 597,-225"/>
<text text-anchor="middle" x="534" y="-203.3" font-family="Helvetica,sans-Serif" font-size="14.00" fill="#ffffff">Load&#45;ClrLibs.ps1</text>
</g>
<!-- config.lib.ps1&#45;&gt;Load&#45;ClrLibs.ps1 -->
<g id="edge4" class="edge"><title>config.lib.ps1&#45;&gt;Load&#45;ClrLibs.ps1</title>
<path fill="none" stroke="#404040" d="M435.026,-189.066C443.356,-190.591 452.151,-192.2 460.914,-193.805"/>
<polygon fill="#404040" stroke="#404040" points="460.301,-197.251 470.768,-195.608 461.562,-190.365 460.301,-197.251"/>
</g>
<!-- Load&#45;ClrLibs.ps1&#45;&gt;BenchLib.dll -->
<g id="edge5" class="edge"><title>Load&#45;ClrLibs.ps1&#45;&gt;BenchLib.dll</title>
<path fill="none" stroke="#404040" d="M597.12,-207C605.603,-207 614.277,-207 622.66,-207"/>
<polygon fill="#404040" stroke="#404040" points="622.71,-210.5 632.71,-207 622.71,-203.5 622.71,-210.5"/>
</g>
<!-- PsExecHost.ps1 -->
<g id="node9" class="node"><title>PsExecHost.ps1</title>
<polygon fill="#1ba1e2" stroke="#1ba1e2" points="142,-198 19,-198 19,-162 142,-162 142,-198"/>
<text text-anchor="middle" x="80.5" y="-176.3" font-family="Helvetica,sans-Serif" font-size="14.00" fill="#ffffff">PsExecHost.ps1</text>
</g>
<!-- PsExecHost.ps1&#45;&gt;bench.lib.ps1 -->
<g id="edge6" class="edge"><title>PsExecHost.ps1&#45;&gt;bench.lib.ps1</title>
<path fill="none" stroke="#404040" d="M142.003,-170.1C156.65,-167.703 172.295,-165.143 186.9,-162.753"/>
<polygon fill="#404040" stroke="#404040" points="187.516,-166.199 196.82,-161.129 186.386,-159.29 187.516,-166.199"/>
</g>
<!-- reg.lib.ps1 -->
<g id="node10" class="node"><title>reg.lib.ps1</title>
<polygon fill="#0072c6" stroke="#0072c6" points="289,-117 206,-117 206,-81 289,-81 289,-117"/>
<text text-anchor="middle" x="247.5" y="-95.3" font-family="Helvetica,sans-Serif" font-size="14.00" fill="#ffffff">reg.lib.ps1</text>
</g>
<!-- PsExecHost.ps1&#45;&gt;reg.lib.ps1 -->
<g id="edge7" class="edge"><title>PsExecHost.ps1&#45;&gt;reg.lib.ps1</title>
<path fill="none" stroke="#404040" d="M141.408,-161.957C148.149,-159.254 154.812,-156.265 161,-153 178.689,-143.668 180.177,-136.817 197,-126 198.907,-124.774 200.873,-123.549 202.874,-122.335"/>
<polygon fill="#404040" stroke="#404040" points="204.924,-125.19 211.777,-117.11 201.381,-119.152 204.924,-125.19"/>
</g>
<!-- Run&#45;Adorned.ps1 -->
<g id="node11" class="node"><title>Run&#45;Adorned.ps1</title>
<polygon fill="#1ba1e2" stroke="#1ba1e2" points="145,-144 16,-144 16,-108 145,-108 145,-144"/>
<text text-anchor="middle" x="80.5" y="-122.3" font-family="Helvetica,sans-Serif" font-size="14.00" fill="#ffffff">Run&#45;Adorned.ps1</text>
</g>
<!-- Run&#45;Adorned.ps1&#45;&gt;bench.lib.ps1 -->
<g id="edge8" class="edge"><title>Run&#45;Adorned.ps1&#45;&gt;bench.lib.ps1</title>
<path fill="none" stroke="#404040" d="M145.293,-136.439C158.951,-138.674 173.332,-141.027 186.827,-143.235"/>
<polygon fill="#404040" stroke="#404040" points="186.514,-146.731 196.948,-144.892 187.645,-139.823 186.514,-146.731"/>
</g>
<!-- Run&#45;Adorned.ps1&#45;&gt;reg.lib.ps1 -->
<g id="edge9" class="edge"><title>Run&#45;Adorned.ps1&#45;&gt;reg.lib.ps1</title>
<path fill="none" stroke="#404040" d="M145.293,-115.561C161.957,-112.834 179.695,-109.932 195.59,-107.331"/>
<polygon fill="#404040" stroke="#404040" points="196.436,-110.739 205.74,-105.67 195.306,-103.831 196.436,-110.739"/>
</g>
<!-- Run&#45;CustomScript.ps1 -->
<g id="node12" class="node"><title>Run&#45;CustomScript.ps1</title>
<polygon fill="#1ba1e2" stroke="#1ba1e2" points="161,-90 0,-90 0,-54 161,-54 161,-90"/>
<text text-anchor="middle" x="80.5" y="-68.3" font-family="Helvetica,sans-Serif" font-size="14.00" fill="#ffffff">Run&#45;CustomScript.ps1</text>
</g>
<!-- Run&#45;CustomScript.ps1&#45;&gt;bench.lib.ps1 -->
<g id="edge10" class="edge"><title>Run&#45;CustomScript.ps1&#45;&gt;bench.lib.ps1</title>
<path fill="none" stroke="#404040" d="M141.408,-90.0427C148.149,-92.7457 154.812,-95.7353 161,-99 178.689,-108.332 180.177,-115.183 197,-126 198.907,-127.226 200.873,-128.451 202.874,-129.665"/>
<polygon fill="#404040" stroke="#404040" points="201.381,-132.848 211.777,-134.89 204.924,-126.81 201.381,-132.848"/>
</g>
<!-- Run&#45;CustomScript.ps1&#45;&gt;reg.lib.ps1 -->
<g id="edge11" class="edge"><title>Run&#45;CustomScript.ps1&#45;&gt;reg.lib.ps1</title>
<path fill="none" stroke="#404040" d="M161.1,-85.0255C172.841,-86.9467 184.66,-88.8807 195.605,-90.6717"/>
<polygon fill="#404040" stroke="#404040" points="195.366,-94.179 205.8,-92.3399 196.496,-87.2709 195.366,-94.179"/>
</g>
</g>
</svg>
